G75*
%MOIN*%
%OFA0B0*%
%FSLAX25Y25*%
%IPPOS*%
%LPD*%
%AMOC8*
5,1,8,0,0,1.08239X$1,22.5*
%
%ADD10C,0.00000*%
%ADD11R,0.00100X0.00100*%
%ADD12R,0.00200X0.00100*%
%ADD13R,0.00600X0.00100*%
%ADD14R,0.03100X0.00100*%
%ADD15R,0.04100X0.00100*%
%ADD16R,0.00700X0.00100*%
%ADD17R,0.00100X0.01200*%
%ADD18R,0.00100X0.00700*%
%ADD19R,0.00100X0.00500*%
%ADD20R,0.00100X0.00300*%
%ADD21R,0.00100X0.00400*%
%ADD22R,0.00100X0.00600*%
%ADD23R,0.00100X0.00900*%
%ADD24R,0.00100X0.00200*%
%ADD25R,0.00100X0.00800*%
%ADD26R,0.00100X0.01700*%
%ADD27R,0.00100X0.01000*%
%ADD28R,0.00100X0.01300*%
%ADD29R,0.00100X0.01400*%
%ADD30R,0.00100X0.01100*%
%ADD31R,0.00100X0.02700*%
%ADD32R,0.00100X0.01800*%
%ADD33R,0.00100X0.04900*%
%ADD34R,0.00100X0.02200*%
%ADD35R,0.00100X0.06000*%
%ADD36R,0.00100X0.02300*%
%ADD37R,0.00100X0.02900*%
%ADD38R,0.00100X0.06700*%
%ADD39R,0.00100X0.02100*%
%ADD40R,0.00100X0.03700*%
%ADD41R,0.00100X0.05000*%
%ADD42R,0.00100X0.02600*%
%ADD43R,0.00100X0.02800*%
%ADD44R,0.00100X0.04100*%
%ADD45R,0.00100X0.05100*%
%ADD46R,0.00100X0.05600*%
%ADD47R,0.00100X0.06100*%
%ADD48R,0.00100X0.01500*%
%ADD49R,0.00100X0.13500*%
%ADD50R,0.00100X0.13100*%
%ADD51R,0.00100X0.10600*%
%ADD52R,0.00100X0.08300*%
%ADD53R,0.00100X0.06300*%
%ADD54R,0.00100X0.02500*%
%ADD55R,0.00100X0.03500*%
%ADD56R,0.00100X0.03900*%
%ADD57R,0.00100X0.05400*%
%ADD58R,0.00100X0.06600*%
%ADD59R,0.00100X0.05500*%
%ADD60R,0.00100X0.06200*%
%ADD61R,0.00100X0.04500*%
%ADD62R,0.00100X0.03600*%
%ADD63R,0.00100X0.01600*%
%ADD64R,0.00100X0.01900*%
%ADD65R,0.00100X0.02400*%
%ADD66R,0.00100X0.03200*%
%ADD67R,0.00100X0.03000*%
%ADD68R,0.00100X0.03800*%
%ADD69C,0.00600*%
%ADD70C,0.01000*%
%ADD71C,0.00500*%
%ADD72C,0.00400*%
%ADD73R,0.03400X0.02400*%
%ADD74R,0.02400X0.03400*%
%ADD75C,0.01600*%
%ADD76C,0.00800*%
D10*
X0005060Y0002431D02*
X0005060Y0199281D01*
X0201910Y0199281D01*
X0201910Y0002431D01*
X0005060Y0002431D01*
D11*
X0009360Y0006531D03*
X0010560Y0006431D03*
X0013660Y0006631D03*
X0182360Y0011331D03*
X0182360Y0011831D03*
X0182360Y0012131D03*
X0182960Y0012131D03*
X0182460Y0012831D03*
X0183060Y0013431D03*
X0183060Y0013631D03*
X0183160Y0014231D03*
X0182560Y0014631D03*
X0182660Y0015331D03*
X0182760Y0015931D03*
X0182860Y0016331D03*
X0182960Y0016731D03*
X0183360Y0015431D03*
X0183660Y0019431D03*
X0183660Y0019631D03*
X0183860Y0020131D03*
X0184060Y0020731D03*
X0184060Y0020931D03*
X0184260Y0021331D03*
X0184360Y0021631D03*
X0184560Y0022031D03*
X0184660Y0022231D03*
X0185660Y0023931D03*
X0186060Y0024431D03*
X0192660Y0023631D03*
X0193260Y0023331D03*
X0193260Y0023131D03*
X0193260Y0022931D03*
X0192560Y0022631D03*
X0192560Y0022031D03*
X0192460Y0021831D03*
X0192460Y0021631D03*
X0193160Y0022131D03*
X0194860Y0021331D03*
X0195360Y0020031D03*
X0195460Y0019731D03*
X0195560Y0019731D03*
X0195960Y0019631D03*
X0196260Y0017731D03*
X0196260Y0017431D03*
X0196260Y0017031D03*
X0196460Y0016731D03*
X0196460Y0016531D03*
X0196560Y0016531D03*
X0196560Y0016331D03*
X0196460Y0016231D03*
X0196560Y0016031D03*
X0196560Y0015731D03*
X0196960Y0015731D03*
X0196960Y0016331D03*
X0196660Y0015131D03*
X0196660Y0014931D03*
X0196760Y0014831D03*
X0196860Y0014931D03*
X0196860Y0014131D03*
X0196860Y0013231D03*
X0196860Y0013031D03*
X0196860Y0012831D03*
X0196860Y0012231D03*
X0196660Y0011631D03*
X0196560Y0011431D03*
X0196360Y0010831D03*
X0196660Y0010231D03*
X0196360Y0009831D03*
X0196260Y0009631D03*
X0196060Y0009931D03*
X0194760Y0008731D03*
X0193660Y0009431D03*
X0194160Y0010131D03*
X0192560Y0013131D03*
X0192360Y0015131D03*
X0192360Y0015331D03*
X0192260Y0018231D03*
X0192260Y0018631D03*
X0192260Y0018931D03*
X0192960Y0019531D03*
X0192360Y0020331D03*
X0192860Y0025131D03*
X0193560Y0025531D03*
X0193560Y0025731D03*
X0193660Y0026731D03*
X0193060Y0027231D03*
X0193760Y0028331D03*
X0193060Y0028631D03*
X0193060Y0029831D03*
X0193060Y0030031D03*
X0193560Y0030931D03*
X0193360Y0031931D03*
X0192860Y0031731D03*
X0192560Y0032831D03*
X0193060Y0032931D03*
X0192760Y0034131D03*
X0192160Y0035531D03*
X0192060Y0035631D03*
X0192160Y0035731D03*
X0190460Y0033131D03*
X0189660Y0032731D03*
X0192560Y0043831D03*
X0192760Y0043831D03*
X0193360Y0043931D03*
X0193760Y0044031D03*
X0195060Y0044431D03*
X0194960Y0044831D03*
X0196060Y0044731D03*
X0194260Y0045931D03*
X0191160Y0044631D03*
X0190560Y0044631D03*
X0190160Y0045031D03*
X0190260Y0045431D03*
X0190260Y0045631D03*
X0190260Y0045831D03*
X0190460Y0045331D03*
X0190360Y0046531D03*
X0190460Y0047431D03*
X0191160Y0047831D03*
X0191160Y0048031D03*
X0190560Y0048431D03*
X0190660Y0049731D03*
X0190660Y0050031D03*
X0191360Y0049531D03*
X0190960Y0051931D03*
X0191060Y0052731D03*
X0191160Y0053331D03*
X0191160Y0053531D03*
X0191860Y0053431D03*
X0191860Y0053631D03*
X0191960Y0054331D03*
X0191260Y0054331D03*
X0191960Y0056931D03*
X0191460Y0057031D03*
X0191860Y0057431D03*
X0191460Y0057731D03*
X0191560Y0057831D03*
X0191560Y0058031D03*
X0191760Y0058331D03*
X0191760Y0058631D03*
X0191660Y0058931D03*
X0188060Y0058531D03*
X0185260Y0049531D03*
X0185360Y0049431D03*
X0185360Y0048931D03*
X0184960Y0048431D03*
X0184660Y0048731D03*
X0184360Y0048431D03*
X0184060Y0048831D03*
X0184160Y0049031D03*
X0183860Y0049331D03*
X0183960Y0049631D03*
X0184160Y0049631D03*
X0187360Y0048631D03*
X0186560Y0046731D03*
X0187460Y0046031D03*
X0187460Y0045831D03*
X0187460Y0045531D03*
X0187860Y0045631D03*
X0187960Y0045531D03*
X0196660Y0017731D03*
X0184460Y0009931D03*
X0184360Y0009831D03*
D12*
X0037210Y0006431D03*
X0012610Y0006431D03*
X0011510Y0006431D03*
X0011210Y0006431D03*
X0009910Y0006531D03*
D13*
X0012010Y0006431D03*
X0037210Y0006531D03*
D14*
X0011660Y0006531D03*
D15*
X0011360Y0006631D03*
D16*
X0037260Y0006631D03*
D17*
X0182860Y0010081D03*
X0184760Y0021481D03*
X0185260Y0022581D03*
X0185560Y0023081D03*
X0185860Y0023581D03*
X0193160Y0030681D03*
X0196460Y0039681D03*
X0196560Y0039681D03*
X0196160Y0018681D03*
X0196960Y0011681D03*
X0196560Y0010681D03*
D18*
X0196860Y0011731D03*
X0196960Y0012731D03*
X0196660Y0015831D03*
X0196060Y0018231D03*
X0195860Y0018831D03*
X0195760Y0019831D03*
X0195460Y0020431D03*
X0194760Y0021831D03*
X0193960Y0023031D03*
X0193760Y0023331D03*
X0193560Y0023631D03*
X0193460Y0023731D03*
X0188360Y0025931D03*
X0188260Y0025831D03*
X0187760Y0025631D03*
X0187660Y0025531D03*
X0187560Y0025531D03*
X0187260Y0025231D03*
X0187060Y0025131D03*
X0186660Y0024631D03*
X0189760Y0032931D03*
X0189860Y0032931D03*
X0189960Y0032931D03*
X0193060Y0034131D03*
X0196160Y0040231D03*
X0195760Y0040531D03*
X0195460Y0040731D03*
X0193460Y0040631D03*
X0193260Y0040731D03*
X0193060Y0040831D03*
X0192860Y0040931D03*
X0192260Y0041231D03*
X0191960Y0041431D03*
X0191860Y0041431D03*
X0191760Y0041531D03*
X0191360Y0041731D03*
X0191160Y0041831D03*
X0190760Y0042031D03*
X0190660Y0042031D03*
X0190560Y0042131D03*
X0190460Y0042131D03*
X0190260Y0042231D03*
X0189960Y0042331D03*
X0189860Y0042331D03*
X0189760Y0042431D03*
X0189660Y0042431D03*
X0189360Y0042531D03*
X0187360Y0043131D03*
X0187060Y0043231D03*
X0186360Y0043431D03*
X0186160Y0043431D03*
X0185460Y0047531D03*
X0184560Y0048631D03*
X0185160Y0049231D03*
X0185760Y0049031D03*
X0185960Y0048931D03*
X0186260Y0048831D03*
X0186860Y0048631D03*
X0187260Y0048431D03*
X0187460Y0048331D03*
X0187660Y0048231D03*
X0187760Y0048231D03*
X0187960Y0048131D03*
X0188360Y0047931D03*
X0188460Y0047931D03*
X0189060Y0047631D03*
X0189360Y0047531D03*
X0189860Y0047231D03*
X0189960Y0047231D03*
X0190360Y0047031D03*
X0191160Y0046731D03*
X0191260Y0046631D03*
X0191660Y0046431D03*
X0192060Y0046331D03*
X0194560Y0045531D03*
X0194260Y0044331D03*
X0193560Y0044131D03*
X0196360Y0045131D03*
X0191960Y0056231D03*
X0195260Y0009031D03*
X0195160Y0008931D03*
X0183660Y0009631D03*
X0183360Y0009531D03*
D19*
X0182960Y0009631D03*
X0185260Y0013731D03*
X0184860Y0013931D03*
X0183960Y0014231D03*
X0183860Y0014231D03*
X0183660Y0014331D03*
X0183260Y0014431D03*
X0192460Y0014431D03*
X0196860Y0015431D03*
X0196960Y0013431D03*
X0195860Y0009731D03*
X0195960Y0009431D03*
X0194660Y0008931D03*
X0194460Y0009031D03*
X0194360Y0009131D03*
X0196160Y0017731D03*
X0194860Y0021831D03*
X0194160Y0022831D03*
X0192660Y0024631D03*
X0192360Y0024931D03*
X0191960Y0025231D03*
X0191760Y0025331D03*
X0191660Y0025431D03*
X0191260Y0025731D03*
X0190860Y0025931D03*
X0190760Y0025931D03*
X0190560Y0026031D03*
X0190460Y0026031D03*
X0190260Y0026131D03*
X0190160Y0026131D03*
X0190060Y0026131D03*
X0189960Y0026131D03*
X0189860Y0026231D03*
X0189560Y0026131D03*
X0189460Y0026231D03*
X0189360Y0026131D03*
X0189260Y0026131D03*
X0189160Y0026131D03*
X0188960Y0026131D03*
X0188660Y0026031D03*
X0188460Y0025931D03*
X0187960Y0025731D03*
X0193460Y0025131D03*
X0193360Y0033131D03*
X0196060Y0039531D03*
X0196360Y0039431D03*
X0195660Y0039731D03*
X0195560Y0039731D03*
X0195460Y0039831D03*
X0195360Y0039831D03*
X0195060Y0039931D03*
X0194660Y0040131D03*
X0194560Y0040131D03*
X0194060Y0040331D03*
X0194560Y0041331D03*
X0194460Y0041431D03*
X0194260Y0041531D03*
X0194160Y0041631D03*
X0194060Y0041731D03*
X0193960Y0041731D03*
X0193760Y0041931D03*
X0193560Y0042031D03*
X0193460Y0042131D03*
X0193260Y0042231D03*
X0193060Y0042331D03*
X0192960Y0042431D03*
X0192860Y0042531D03*
X0192760Y0042531D03*
X0192560Y0042631D03*
X0192060Y0042931D03*
X0191860Y0043031D03*
X0191160Y0043431D03*
X0191060Y0043531D03*
X0190860Y0043631D03*
X0190560Y0043831D03*
X0190460Y0043831D03*
X0190160Y0044031D03*
X0189860Y0044231D03*
X0189760Y0044331D03*
X0189460Y0044431D03*
X0189360Y0044531D03*
X0190360Y0044931D03*
X0190460Y0044931D03*
X0190960Y0044531D03*
X0191360Y0044331D03*
X0191860Y0044131D03*
X0192060Y0044031D03*
X0192260Y0044031D03*
X0192360Y0044031D03*
X0192960Y0044031D03*
X0193060Y0044031D03*
X0193160Y0044031D03*
X0193460Y0044131D03*
X0193660Y0044131D03*
X0193860Y0044231D03*
X0193960Y0044231D03*
X0194460Y0044431D03*
X0194560Y0044431D03*
X0194660Y0044531D03*
X0194760Y0044531D03*
X0195060Y0045431D03*
X0194760Y0045531D03*
X0194260Y0045531D03*
X0193960Y0045731D03*
X0193760Y0045731D03*
X0193560Y0045831D03*
X0193460Y0045831D03*
X0192760Y0046031D03*
X0191560Y0046531D03*
X0191360Y0046631D03*
X0188460Y0045131D03*
X0188360Y0045131D03*
X0188260Y0045231D03*
X0187560Y0045631D03*
X0187360Y0045831D03*
X0186960Y0046131D03*
X0186760Y0046231D03*
X0186460Y0046531D03*
X0186360Y0046531D03*
X0185660Y0047231D03*
X0185260Y0047731D03*
X0185060Y0047931D03*
X0184860Y0048231D03*
X0184660Y0048331D03*
X0185260Y0049131D03*
X0184560Y0049431D03*
X0184360Y0049431D03*
X0186160Y0048831D03*
X0186560Y0048631D03*
X0187860Y0048131D03*
X0188860Y0042631D03*
X0190160Y0042231D03*
X0194760Y0041231D03*
X0194860Y0041131D03*
X0195160Y0040931D03*
X0196060Y0045131D03*
X0196160Y0045231D03*
X0196460Y0045031D03*
X0196560Y0045031D03*
X0196660Y0045131D03*
D20*
X0195160Y0044731D03*
X0195060Y0044731D03*
X0194160Y0044331D03*
X0193760Y0044331D03*
X0193360Y0044231D03*
X0192860Y0044131D03*
X0192760Y0044131D03*
X0192660Y0044131D03*
X0192560Y0044131D03*
X0192160Y0042931D03*
X0191160Y0044331D03*
X0191060Y0044531D03*
X0188860Y0044731D03*
X0186660Y0046431D03*
X0185860Y0043631D03*
X0185460Y0048931D03*
X0184760Y0049531D03*
X0184660Y0049531D03*
X0184060Y0049531D03*
X0191260Y0049031D03*
X0191960Y0054731D03*
X0192260Y0035531D03*
X0193060Y0033231D03*
X0192660Y0032731D03*
X0190360Y0033131D03*
X0189560Y0033031D03*
X0192660Y0023931D03*
X0192460Y0021331D03*
X0195760Y0018831D03*
X0196960Y0016031D03*
X0196760Y0015131D03*
X0196960Y0014031D03*
X0196760Y0011731D03*
X0196760Y0010831D03*
X0195960Y0009931D03*
X0195860Y0009231D03*
X0195060Y0009131D03*
X0194560Y0009031D03*
X0192860Y0010531D03*
X0192660Y0010631D03*
X0192560Y0010631D03*
X0192160Y0010831D03*
X0191960Y0010931D03*
X0191860Y0010931D03*
X0191660Y0011031D03*
X0191560Y0011131D03*
X0191460Y0011131D03*
X0191260Y0011231D03*
X0191060Y0011331D03*
X0190960Y0011431D03*
X0190860Y0011431D03*
X0190760Y0011431D03*
X0190660Y0011531D03*
X0190460Y0011631D03*
X0190160Y0011731D03*
X0189960Y0011831D03*
X0189760Y0011931D03*
X0189060Y0012231D03*
X0188860Y0012331D03*
X0188160Y0012631D03*
X0187860Y0012731D03*
X0186860Y0013131D03*
X0186660Y0013231D03*
X0186460Y0013331D03*
X0184660Y0014031D03*
X0184460Y0014131D03*
X0184160Y0014231D03*
X0183760Y0014331D03*
X0182360Y0010631D03*
X0182460Y0010031D03*
X0192960Y0017131D03*
X0184760Y0022331D03*
X0185460Y0023531D03*
D21*
X0188860Y0026081D03*
X0189060Y0026081D03*
X0189660Y0026181D03*
X0189760Y0026181D03*
X0190360Y0026081D03*
X0190660Y0025981D03*
X0190960Y0025881D03*
X0191060Y0025781D03*
X0191160Y0025781D03*
X0191360Y0025681D03*
X0191460Y0025581D03*
X0191560Y0025581D03*
X0191860Y0025281D03*
X0192160Y0025081D03*
X0192260Y0024981D03*
X0192660Y0023281D03*
X0195860Y0019781D03*
X0195660Y0019381D03*
X0195560Y0019381D03*
X0196960Y0014481D03*
X0196760Y0011281D03*
X0196360Y0010481D03*
X0196160Y0009981D03*
X0196060Y0009581D03*
X0195660Y0009581D03*
X0194260Y0009281D03*
X0193060Y0010481D03*
X0192460Y0010681D03*
X0192360Y0010681D03*
X0192260Y0010781D03*
X0192060Y0010881D03*
X0191760Y0010981D03*
X0191360Y0011181D03*
X0191160Y0011281D03*
X0190560Y0011581D03*
X0190360Y0011681D03*
X0190260Y0011681D03*
X0190060Y0011781D03*
X0189860Y0011881D03*
X0189660Y0011981D03*
X0189560Y0011981D03*
X0189460Y0012081D03*
X0189360Y0012081D03*
X0189260Y0012181D03*
X0189160Y0012181D03*
X0188960Y0012181D03*
X0188760Y0012381D03*
X0188660Y0012381D03*
X0188560Y0012481D03*
X0188460Y0012481D03*
X0188360Y0012481D03*
X0188260Y0012581D03*
X0188060Y0012581D03*
X0187960Y0012681D03*
X0187760Y0012781D03*
X0187660Y0012781D03*
X0187560Y0012881D03*
X0187460Y0012881D03*
X0187360Y0012981D03*
X0187260Y0012981D03*
X0187160Y0013081D03*
X0187060Y0013081D03*
X0186960Y0013081D03*
X0186760Y0013181D03*
X0186560Y0013281D03*
X0186360Y0013381D03*
X0186260Y0013381D03*
X0186160Y0013481D03*
X0186060Y0013481D03*
X0185960Y0013581D03*
X0185860Y0013581D03*
X0185760Y0013581D03*
X0185660Y0013681D03*
X0185560Y0013681D03*
X0185460Y0013781D03*
X0185360Y0013781D03*
X0185160Y0013881D03*
X0185060Y0013881D03*
X0184960Y0013981D03*
X0184760Y0013981D03*
X0184560Y0014081D03*
X0184360Y0014181D03*
X0184260Y0014181D03*
X0184060Y0014281D03*
X0183560Y0014381D03*
X0183460Y0014381D03*
X0183360Y0014381D03*
X0184160Y0009881D03*
X0184060Y0009781D03*
X0183160Y0009481D03*
X0183060Y0009481D03*
X0190260Y0033081D03*
X0192860Y0033081D03*
X0192760Y0034781D03*
X0192460Y0035181D03*
X0193660Y0041981D03*
X0193360Y0042181D03*
X0193160Y0042281D03*
X0192460Y0042681D03*
X0192360Y0042781D03*
X0192260Y0042881D03*
X0191960Y0042981D03*
X0191760Y0043081D03*
X0191660Y0043181D03*
X0191560Y0043281D03*
X0191460Y0043281D03*
X0191360Y0043381D03*
X0191260Y0043381D03*
X0190960Y0043581D03*
X0190760Y0043681D03*
X0190660Y0043781D03*
X0190360Y0043881D03*
X0190260Y0043981D03*
X0190060Y0044081D03*
X0189960Y0044281D03*
X0189660Y0044381D03*
X0189260Y0044581D03*
X0189160Y0044681D03*
X0189060Y0044681D03*
X0188960Y0044781D03*
X0188760Y0044881D03*
X0188660Y0044981D03*
X0188560Y0045081D03*
X0188060Y0045381D03*
X0187760Y0045581D03*
X0187160Y0045981D03*
X0187060Y0046081D03*
X0186860Y0046281D03*
X0186560Y0046381D03*
X0186160Y0046881D03*
X0186060Y0046881D03*
X0185760Y0047281D03*
X0184960Y0048081D03*
X0184360Y0048881D03*
X0187360Y0048281D03*
X0190260Y0044981D03*
X0190860Y0044581D03*
X0191260Y0044381D03*
X0191460Y0044281D03*
X0191560Y0044281D03*
X0191660Y0044181D03*
X0191760Y0044081D03*
X0191960Y0044081D03*
X0192160Y0044081D03*
X0192460Y0044081D03*
X0193260Y0044081D03*
X0194060Y0044381D03*
X0195260Y0044681D03*
X0195360Y0044681D03*
X0196760Y0045081D03*
X0187660Y0043181D03*
X0186660Y0043381D03*
X0191460Y0056281D03*
X0191660Y0058381D03*
X0187360Y0057681D03*
X0187260Y0057581D03*
D22*
X0184860Y0049381D03*
X0184960Y0049281D03*
X0185060Y0049281D03*
X0185560Y0049081D03*
X0185660Y0049081D03*
X0185860Y0048981D03*
X0186060Y0048981D03*
X0186360Y0048781D03*
X0186460Y0048781D03*
X0186660Y0048681D03*
X0186760Y0048681D03*
X0186960Y0048581D03*
X0187060Y0048481D03*
X0187160Y0048481D03*
X0187560Y0048281D03*
X0188060Y0048081D03*
X0188160Y0048081D03*
X0188260Y0047981D03*
X0188560Y0047881D03*
X0188660Y0047781D03*
X0188760Y0047781D03*
X0188860Y0047781D03*
X0188960Y0047681D03*
X0189160Y0047581D03*
X0189260Y0047581D03*
X0189460Y0047481D03*
X0189560Y0047481D03*
X0189660Y0047381D03*
X0189760Y0047281D03*
X0190060Y0047181D03*
X0190160Y0047181D03*
X0190260Y0047081D03*
X0191460Y0046581D03*
X0191760Y0046481D03*
X0191860Y0046381D03*
X0191960Y0046381D03*
X0192160Y0046281D03*
X0192260Y0046281D03*
X0192360Y0046181D03*
X0192460Y0046181D03*
X0192560Y0046081D03*
X0192660Y0046081D03*
X0192860Y0046081D03*
X0192960Y0045981D03*
X0193060Y0045981D03*
X0193160Y0045881D03*
X0193260Y0045881D03*
X0193360Y0045881D03*
X0193660Y0045781D03*
X0193860Y0045681D03*
X0194060Y0045681D03*
X0194160Y0045581D03*
X0194360Y0045581D03*
X0194460Y0045581D03*
X0194660Y0045481D03*
X0194860Y0045481D03*
X0194960Y0045381D03*
X0195160Y0045381D03*
X0195260Y0045381D03*
X0195360Y0045381D03*
X0194860Y0044581D03*
X0194360Y0044381D03*
X0196260Y0045081D03*
X0193860Y0041881D03*
X0194360Y0041481D03*
X0194660Y0041281D03*
X0194960Y0041081D03*
X0195060Y0041081D03*
X0195260Y0040881D03*
X0195360Y0040781D03*
X0195560Y0040681D03*
X0195660Y0040581D03*
X0195860Y0040481D03*
X0195960Y0040381D03*
X0196060Y0040281D03*
X0196360Y0040081D03*
X0196160Y0039481D03*
X0195960Y0039581D03*
X0195860Y0039581D03*
X0195760Y0039681D03*
X0195260Y0039881D03*
X0195160Y0039881D03*
X0194960Y0039981D03*
X0194860Y0039981D03*
X0194760Y0040081D03*
X0194460Y0040181D03*
X0194360Y0040181D03*
X0194260Y0040281D03*
X0194160Y0040281D03*
X0193960Y0040381D03*
X0193860Y0040481D03*
X0193760Y0040481D03*
X0193660Y0040581D03*
X0193560Y0040581D03*
X0193360Y0040681D03*
X0193160Y0040781D03*
X0192960Y0040881D03*
X0192760Y0040981D03*
X0192660Y0041081D03*
X0192560Y0041081D03*
X0192460Y0041181D03*
X0192360Y0041181D03*
X0192160Y0041281D03*
X0192060Y0041381D03*
X0191660Y0041581D03*
X0191560Y0041581D03*
X0191460Y0041681D03*
X0191260Y0041781D03*
X0191060Y0041881D03*
X0190960Y0041881D03*
X0190860Y0041981D03*
X0190360Y0042181D03*
X0190060Y0042281D03*
X0189560Y0042481D03*
X0189460Y0042481D03*
X0189260Y0042581D03*
X0189160Y0042581D03*
X0189060Y0042581D03*
X0188960Y0042681D03*
X0188760Y0042681D03*
X0188660Y0042781D03*
X0188560Y0042781D03*
X0188460Y0042781D03*
X0188360Y0042781D03*
X0188260Y0042881D03*
X0188160Y0042881D03*
X0188060Y0042881D03*
X0187960Y0042881D03*
X0187860Y0042981D03*
X0187760Y0042981D03*
X0187560Y0043081D03*
X0187460Y0043081D03*
X0187260Y0043181D03*
X0187160Y0043181D03*
X0186960Y0043281D03*
X0186860Y0043281D03*
X0186760Y0043281D03*
X0186560Y0043381D03*
X0186460Y0043381D03*
X0186260Y0043381D03*
X0186060Y0043481D03*
X0185960Y0043481D03*
X0187660Y0045581D03*
X0187260Y0045881D03*
X0188160Y0045281D03*
X0186260Y0046681D03*
X0185960Y0046981D03*
X0185860Y0047081D03*
X0185360Y0047581D03*
X0185160Y0047781D03*
X0184760Y0048281D03*
X0192660Y0042581D03*
X0192360Y0035381D03*
X0192760Y0032681D03*
X0192860Y0032481D03*
X0190160Y0032981D03*
X0190060Y0032981D03*
X0188760Y0026081D03*
X0188560Y0025981D03*
X0188160Y0025881D03*
X0188060Y0025781D03*
X0187860Y0025681D03*
X0192060Y0025181D03*
X0192460Y0024781D03*
X0192560Y0024781D03*
X0193660Y0023481D03*
X0196360Y0017181D03*
X0196960Y0015181D03*
X0195760Y0009381D03*
X0195560Y0009181D03*
X0195460Y0009181D03*
X0195360Y0009081D03*
X0194960Y0008881D03*
X0194860Y0008881D03*
X0194160Y0009381D03*
X0183960Y0009681D03*
X0183860Y0009681D03*
X0183760Y0009681D03*
X0183560Y0009581D03*
X0183460Y0009581D03*
X0183260Y0009481D03*
X0182460Y0013381D03*
X0182560Y0014081D03*
D23*
X0185960Y0023631D03*
X0186060Y0023831D03*
X0186160Y0023931D03*
X0186360Y0024331D03*
X0186760Y0024831D03*
X0186860Y0024931D03*
X0187160Y0025231D03*
X0193060Y0026631D03*
X0194460Y0022231D03*
X0194560Y0022131D03*
X0194660Y0021931D03*
X0192960Y0031631D03*
X0192960Y0034231D03*
X0196960Y0039431D03*
X0196860Y0039531D03*
X0195660Y0045031D03*
X0190360Y0045731D03*
X0187560Y0057631D03*
X0187460Y0057631D03*
X0187860Y0058031D03*
X0196260Y0010231D03*
X0193860Y0009931D03*
D24*
X0194060Y0010181D03*
X0192960Y0010481D03*
X0192760Y0010581D03*
X0194760Y0008981D03*
X0195060Y0008781D03*
X0195660Y0008981D03*
X0196160Y0009581D03*
X0196360Y0010081D03*
X0196060Y0010181D03*
X0196660Y0010481D03*
X0196860Y0011181D03*
X0196860Y0012581D03*
X0196860Y0013481D03*
X0196860Y0013781D03*
X0196860Y0014681D03*
X0193060Y0015181D03*
X0192960Y0016781D03*
X0192360Y0017181D03*
X0192360Y0020081D03*
X0193060Y0020781D03*
X0193160Y0021881D03*
X0194960Y0020881D03*
X0195860Y0019381D03*
X0195760Y0019181D03*
X0192560Y0013381D03*
X0184260Y0009781D03*
X0182360Y0010981D03*
X0182360Y0011581D03*
X0183160Y0017581D03*
X0183560Y0019381D03*
X0185360Y0023381D03*
X0193060Y0027481D03*
X0193060Y0029581D03*
X0193660Y0029781D03*
X0192860Y0031981D03*
X0193060Y0033581D03*
X0193360Y0033581D03*
X0192760Y0034381D03*
X0189660Y0033081D03*
X0189460Y0032981D03*
X0187660Y0042781D03*
X0185760Y0043581D03*
X0185660Y0043581D03*
X0187860Y0045281D03*
X0187960Y0045281D03*
X0189560Y0044581D03*
X0189560Y0044281D03*
X0190860Y0044981D03*
X0192660Y0043781D03*
X0194960Y0044381D03*
X0190460Y0047781D03*
X0185560Y0047481D03*
X0185560Y0047181D03*
X0185360Y0049181D03*
X0185460Y0049281D03*
X0184760Y0049181D03*
X0184660Y0049181D03*
X0184160Y0049281D03*
X0184060Y0049181D03*
X0183960Y0049381D03*
X0191860Y0053181D03*
X0191560Y0058381D03*
X0191560Y0058681D03*
X0188060Y0058181D03*
D25*
X0187960Y0058181D03*
X0191660Y0057681D03*
X0191960Y0055381D03*
X0195560Y0045081D03*
X0195760Y0045081D03*
X0195860Y0045081D03*
X0195960Y0045081D03*
X0192560Y0034981D03*
X0192660Y0034781D03*
X0187460Y0025481D03*
X0187360Y0025381D03*
X0186960Y0024981D03*
X0193360Y0023881D03*
X0193860Y0023181D03*
X0194060Y0022881D03*
X0194260Y0022581D03*
X0194360Y0022381D03*
X0194960Y0021481D03*
X0195260Y0020881D03*
X0195360Y0020681D03*
X0195560Y0020281D03*
X0195660Y0020081D03*
X0196060Y0019081D03*
X0196260Y0018481D03*
X0196860Y0016181D03*
X0196660Y0011081D03*
X0194060Y0009481D03*
D26*
X0196760Y0016331D03*
X0184060Y0019731D03*
X0190560Y0047431D03*
X0191760Y0057331D03*
D27*
X0184260Y0049281D03*
X0195460Y0045081D03*
X0196660Y0039581D03*
X0196760Y0039481D03*
X0186560Y0024581D03*
X0186460Y0024381D03*
X0186260Y0024181D03*
X0185460Y0022781D03*
X0185360Y0022681D03*
X0195160Y0020981D03*
X0196360Y0018081D03*
X0193960Y0009581D03*
D28*
X0196660Y0016931D03*
X0185160Y0022431D03*
X0184660Y0021331D03*
X0193260Y0033331D03*
X0196260Y0039831D03*
X0190660Y0045131D03*
X0184460Y0049131D03*
D29*
X0185060Y0022281D03*
X0195960Y0018781D03*
X0196460Y0017581D03*
X0196560Y0017381D03*
X0196460Y0010581D03*
X0193760Y0009981D03*
X0193660Y0010281D03*
D30*
X0195060Y0021131D03*
X0185760Y0023431D03*
X0185660Y0023231D03*
X0192860Y0034331D03*
X0187660Y0057731D03*
X0187760Y0057831D03*
D31*
X0193660Y0028231D03*
D32*
X0193560Y0010581D03*
D33*
X0193560Y0028331D03*
X0191260Y0051731D03*
D34*
X0193460Y0010781D03*
D35*
X0193460Y0028481D03*
X0190960Y0048781D03*
D36*
X0183760Y0018831D03*
X0193360Y0011131D03*
D37*
X0193260Y0011631D03*
D38*
X0193260Y0026831D03*
D39*
X0193260Y0031331D03*
X0191160Y0049231D03*
D40*
X0193160Y0012131D03*
D41*
X0193160Y0024781D03*
D42*
X0193160Y0028681D03*
X0193060Y0031481D03*
D43*
X0193160Y0032781D03*
X0183460Y0017681D03*
X0183360Y0016981D03*
X0191160Y0051781D03*
D44*
X0193060Y0012931D03*
D45*
X0193060Y0023531D03*
D46*
X0192960Y0013781D03*
D47*
X0192960Y0022731D03*
X0182760Y0012731D03*
X0190860Y0048231D03*
D48*
X0190760Y0045131D03*
X0192960Y0032931D03*
X0184960Y0022131D03*
X0184860Y0021831D03*
X0184560Y0021131D03*
X0184460Y0020931D03*
X0184360Y0020631D03*
X0192360Y0016231D03*
D49*
X0192860Y0018131D03*
D50*
X0192760Y0018331D03*
D51*
X0192660Y0017681D03*
D52*
X0192560Y0017731D03*
D53*
X0192460Y0017931D03*
D54*
X0192360Y0018631D03*
D55*
X0183060Y0015531D03*
X0191860Y0055531D03*
D56*
X0191760Y0054431D03*
X0182960Y0014531D03*
D57*
X0182860Y0013481D03*
X0182660Y0012481D03*
X0191360Y0052381D03*
X0191660Y0054481D03*
D58*
X0191560Y0054381D03*
D59*
X0191460Y0053231D03*
D60*
X0191060Y0049481D03*
D61*
X0190760Y0048231D03*
D62*
X0190660Y0047681D03*
D63*
X0190460Y0046481D03*
X0190560Y0045681D03*
X0184260Y0020381D03*
D64*
X0184160Y0020131D03*
X0183960Y0019431D03*
X0183860Y0019031D03*
X0183660Y0018331D03*
D65*
X0183560Y0017981D03*
X0182460Y0011481D03*
D66*
X0183260Y0016481D03*
D67*
X0183160Y0015881D03*
D68*
X0182560Y0011781D03*
D69*
X0171080Y0027977D02*
X0169580Y0027977D01*
X0169080Y0028477D01*
X0150080Y0028477D01*
X0149580Y0027977D01*
X0148080Y0027977D01*
X0148020Y0027979D01*
X0147959Y0027984D01*
X0147900Y0027993D01*
X0147841Y0028006D01*
X0147782Y0028022D01*
X0147725Y0028042D01*
X0147670Y0028065D01*
X0147615Y0028092D01*
X0147563Y0028121D01*
X0147512Y0028154D01*
X0147463Y0028190D01*
X0147417Y0028228D01*
X0147373Y0028270D01*
X0147331Y0028314D01*
X0147293Y0028360D01*
X0147257Y0028409D01*
X0147224Y0028460D01*
X0147195Y0028512D01*
X0147168Y0028567D01*
X0147145Y0028622D01*
X0147125Y0028679D01*
X0147109Y0028738D01*
X0147096Y0028797D01*
X0147087Y0028856D01*
X0147082Y0028917D01*
X0147080Y0028977D01*
X0147080Y0035977D01*
X0147082Y0036037D01*
X0147087Y0036098D01*
X0147096Y0036157D01*
X0147109Y0036216D01*
X0147125Y0036275D01*
X0147145Y0036332D01*
X0147168Y0036387D01*
X0147195Y0036442D01*
X0147224Y0036494D01*
X0147257Y0036545D01*
X0147293Y0036594D01*
X0147331Y0036640D01*
X0147373Y0036684D01*
X0147417Y0036726D01*
X0147463Y0036764D01*
X0147512Y0036800D01*
X0147563Y0036833D01*
X0147615Y0036862D01*
X0147670Y0036889D01*
X0147725Y0036912D01*
X0147782Y0036932D01*
X0147841Y0036948D01*
X0147900Y0036961D01*
X0147959Y0036970D01*
X0148020Y0036975D01*
X0148080Y0036977D01*
X0149580Y0036977D01*
X0150080Y0036477D01*
X0169080Y0036477D01*
X0169580Y0036977D01*
X0171080Y0036977D01*
X0171140Y0036975D01*
X0171201Y0036970D01*
X0171260Y0036961D01*
X0171319Y0036948D01*
X0171378Y0036932D01*
X0171435Y0036912D01*
X0171490Y0036889D01*
X0171545Y0036862D01*
X0171597Y0036833D01*
X0171648Y0036800D01*
X0171697Y0036764D01*
X0171743Y0036726D01*
X0171787Y0036684D01*
X0171829Y0036640D01*
X0171867Y0036594D01*
X0171903Y0036545D01*
X0171936Y0036494D01*
X0171965Y0036442D01*
X0171992Y0036387D01*
X0172015Y0036332D01*
X0172035Y0036275D01*
X0172051Y0036216D01*
X0172064Y0036157D01*
X0172073Y0036098D01*
X0172078Y0036037D01*
X0172080Y0035977D01*
X0172080Y0028977D01*
X0172078Y0028917D01*
X0172073Y0028856D01*
X0172064Y0028797D01*
X0172051Y0028738D01*
X0172035Y0028679D01*
X0172015Y0028622D01*
X0171992Y0028567D01*
X0171965Y0028512D01*
X0171936Y0028460D01*
X0171903Y0028409D01*
X0171867Y0028360D01*
X0171829Y0028314D01*
X0171787Y0028270D01*
X0171743Y0028228D01*
X0171697Y0028190D01*
X0171648Y0028154D01*
X0171597Y0028121D01*
X0171545Y0028092D01*
X0171490Y0028065D01*
X0171435Y0028042D01*
X0171378Y0028022D01*
X0171319Y0028006D01*
X0171260Y0027993D01*
X0171201Y0027984D01*
X0171140Y0027979D01*
X0171080Y0027977D01*
X0132658Y0008518D02*
X0132506Y0008520D01*
X0132355Y0008526D01*
X0132204Y0008535D01*
X0132052Y0008549D01*
X0131902Y0008566D01*
X0131752Y0008587D01*
X0131602Y0008612D01*
X0131453Y0008640D01*
X0131305Y0008673D01*
X0131158Y0008709D01*
X0131011Y0008748D01*
X0130866Y0008792D01*
X0130722Y0008839D01*
X0130579Y0008890D01*
X0130438Y0008944D01*
X0130297Y0009002D01*
X0130159Y0009063D01*
X0130022Y0009128D01*
X0129886Y0009197D01*
X0129753Y0009268D01*
X0129621Y0009343D01*
X0129491Y0009422D01*
X0129364Y0009503D01*
X0129238Y0009588D01*
X0129114Y0009676D01*
X0128993Y0009767D01*
X0128874Y0009861D01*
X0128758Y0009959D01*
X0128644Y0010059D01*
X0128532Y0010161D01*
X0128424Y0010267D01*
X0128318Y0010375D01*
X0128214Y0010486D01*
X0128114Y0010600D01*
X0128016Y0010716D01*
X0127922Y0010835D01*
X0132658Y0020518D02*
X0132812Y0020516D01*
X0132966Y0020510D01*
X0133120Y0020500D01*
X0133274Y0020486D01*
X0133427Y0020469D01*
X0133579Y0020447D01*
X0133731Y0020421D01*
X0133883Y0020392D01*
X0134033Y0020358D01*
X0134183Y0020321D01*
X0134331Y0020280D01*
X0134479Y0020235D01*
X0134625Y0020186D01*
X0134770Y0020134D01*
X0134913Y0020078D01*
X0135056Y0020018D01*
X0135196Y0019955D01*
X0135335Y0019888D01*
X0135472Y0019817D01*
X0135607Y0019743D01*
X0135740Y0019666D01*
X0135872Y0019585D01*
X0136001Y0019501D01*
X0136128Y0019413D01*
X0136252Y0019322D01*
X0136374Y0019229D01*
X0136494Y0019131D01*
X0136611Y0019031D01*
X0136726Y0018928D01*
X0136838Y0018822D01*
X0136947Y0018714D01*
X0137053Y0018602D01*
X0137157Y0018488D01*
X0137257Y0018371D01*
X0137355Y0018252D01*
X0137449Y0018130D01*
X0137540Y0018005D01*
X0132658Y0020518D02*
X0132508Y0020516D01*
X0132357Y0020510D01*
X0132207Y0020501D01*
X0132058Y0020488D01*
X0131908Y0020471D01*
X0131759Y0020450D01*
X0131611Y0020426D01*
X0131463Y0020398D01*
X0131316Y0020366D01*
X0131170Y0020331D01*
X0131025Y0020291D01*
X0130881Y0020249D01*
X0130738Y0020202D01*
X0130596Y0020152D01*
X0130455Y0020099D01*
X0130316Y0020042D01*
X0130178Y0019982D01*
X0130042Y0019918D01*
X0129908Y0019851D01*
X0129775Y0019780D01*
X0129644Y0019706D01*
X0129515Y0019629D01*
X0129388Y0019548D01*
X0129263Y0019465D01*
X0129140Y0019378D01*
X0129019Y0019289D01*
X0128901Y0019196D01*
X0128785Y0019100D01*
X0128671Y0019002D01*
X0128560Y0018901D01*
X0128451Y0018796D01*
X0128346Y0018690D01*
X0128242Y0018580D01*
X0128142Y0018468D01*
X0128044Y0018354D01*
X0127950Y0018237D01*
X0127858Y0018118D01*
X0132658Y0008518D02*
X0132810Y0008520D01*
X0132961Y0008526D01*
X0133112Y0008535D01*
X0133264Y0008549D01*
X0133414Y0008566D01*
X0133564Y0008587D01*
X0133714Y0008612D01*
X0133863Y0008640D01*
X0134011Y0008673D01*
X0134158Y0008709D01*
X0134305Y0008748D01*
X0134450Y0008792D01*
X0134594Y0008839D01*
X0134737Y0008890D01*
X0134878Y0008944D01*
X0135019Y0009002D01*
X0135157Y0009063D01*
X0135294Y0009128D01*
X0135430Y0009197D01*
X0135563Y0009268D01*
X0135695Y0009343D01*
X0135825Y0009422D01*
X0135952Y0009503D01*
X0136078Y0009588D01*
X0136202Y0009676D01*
X0136323Y0009767D01*
X0136442Y0009861D01*
X0136558Y0009959D01*
X0136672Y0010059D01*
X0136784Y0010161D01*
X0136892Y0010267D01*
X0136998Y0010375D01*
X0137102Y0010486D01*
X0137202Y0010600D01*
X0137300Y0010716D01*
X0137394Y0010835D01*
X0123843Y0028297D02*
X0100843Y0028297D01*
X0100843Y0168297D01*
X0108343Y0168297D01*
X0108345Y0168171D01*
X0108351Y0168046D01*
X0108361Y0167921D01*
X0108375Y0167796D01*
X0108392Y0167671D01*
X0108414Y0167547D01*
X0108439Y0167424D01*
X0108469Y0167302D01*
X0108502Y0167181D01*
X0108539Y0167061D01*
X0108579Y0166942D01*
X0108624Y0166825D01*
X0108672Y0166708D01*
X0108724Y0166594D01*
X0108779Y0166481D01*
X0108838Y0166370D01*
X0108900Y0166261D01*
X0108966Y0166154D01*
X0109035Y0166049D01*
X0109107Y0165946D01*
X0109182Y0165845D01*
X0109261Y0165747D01*
X0109343Y0165652D01*
X0109427Y0165559D01*
X0109515Y0165469D01*
X0109605Y0165381D01*
X0109698Y0165297D01*
X0109793Y0165215D01*
X0109891Y0165136D01*
X0109992Y0165061D01*
X0110095Y0164989D01*
X0110200Y0164920D01*
X0110307Y0164854D01*
X0110416Y0164792D01*
X0110527Y0164733D01*
X0110640Y0164678D01*
X0110754Y0164626D01*
X0110871Y0164578D01*
X0110988Y0164533D01*
X0111107Y0164493D01*
X0111227Y0164456D01*
X0111348Y0164423D01*
X0111470Y0164393D01*
X0111593Y0164368D01*
X0111717Y0164346D01*
X0111842Y0164329D01*
X0111967Y0164315D01*
X0112092Y0164305D01*
X0112217Y0164299D01*
X0112343Y0164297D01*
X0112469Y0164299D01*
X0112594Y0164305D01*
X0112719Y0164315D01*
X0112844Y0164329D01*
X0112969Y0164346D01*
X0113093Y0164368D01*
X0113216Y0164393D01*
X0113338Y0164423D01*
X0113459Y0164456D01*
X0113579Y0164493D01*
X0113698Y0164533D01*
X0113815Y0164578D01*
X0113932Y0164626D01*
X0114046Y0164678D01*
X0114159Y0164733D01*
X0114270Y0164792D01*
X0114379Y0164854D01*
X0114486Y0164920D01*
X0114591Y0164989D01*
X0114694Y0165061D01*
X0114795Y0165136D01*
X0114893Y0165215D01*
X0114988Y0165297D01*
X0115081Y0165381D01*
X0115171Y0165469D01*
X0115259Y0165559D01*
X0115343Y0165652D01*
X0115425Y0165747D01*
X0115504Y0165845D01*
X0115579Y0165946D01*
X0115651Y0166049D01*
X0115720Y0166154D01*
X0115786Y0166261D01*
X0115848Y0166370D01*
X0115907Y0166481D01*
X0115962Y0166594D01*
X0116014Y0166708D01*
X0116062Y0166825D01*
X0116107Y0166942D01*
X0116147Y0167061D01*
X0116184Y0167181D01*
X0116217Y0167302D01*
X0116247Y0167424D01*
X0116272Y0167547D01*
X0116294Y0167671D01*
X0116311Y0167796D01*
X0116325Y0167921D01*
X0116335Y0168046D01*
X0116341Y0168171D01*
X0116343Y0168297D01*
X0123843Y0168297D01*
X0123843Y0028297D01*
X0084469Y0028065D02*
X0084469Y0045065D01*
X0084467Y0045125D01*
X0084462Y0045186D01*
X0084453Y0045245D01*
X0084440Y0045304D01*
X0084424Y0045363D01*
X0084404Y0045420D01*
X0084381Y0045475D01*
X0084354Y0045530D01*
X0084325Y0045582D01*
X0084292Y0045633D01*
X0084256Y0045682D01*
X0084218Y0045728D01*
X0084176Y0045772D01*
X0084132Y0045814D01*
X0084086Y0045852D01*
X0084037Y0045888D01*
X0083986Y0045921D01*
X0083934Y0045950D01*
X0083879Y0045977D01*
X0083824Y0046000D01*
X0083767Y0046020D01*
X0083708Y0046036D01*
X0083649Y0046049D01*
X0083590Y0046058D01*
X0083529Y0046063D01*
X0083469Y0046065D01*
X0075469Y0046065D01*
X0075409Y0046063D01*
X0075348Y0046058D01*
X0075289Y0046049D01*
X0075230Y0046036D01*
X0075171Y0046020D01*
X0075114Y0046000D01*
X0075059Y0045977D01*
X0075004Y0045950D01*
X0074952Y0045921D01*
X0074901Y0045888D01*
X0074852Y0045852D01*
X0074806Y0045814D01*
X0074762Y0045772D01*
X0074720Y0045728D01*
X0074682Y0045682D01*
X0074646Y0045633D01*
X0074613Y0045582D01*
X0074584Y0045530D01*
X0074557Y0045475D01*
X0074534Y0045420D01*
X0074514Y0045363D01*
X0074498Y0045304D01*
X0074485Y0045245D01*
X0074476Y0045186D01*
X0074471Y0045125D01*
X0074469Y0045065D01*
X0074469Y0028065D01*
X0074471Y0028005D01*
X0074476Y0027944D01*
X0074485Y0027885D01*
X0074498Y0027826D01*
X0074514Y0027767D01*
X0074534Y0027710D01*
X0074557Y0027655D01*
X0074584Y0027600D01*
X0074613Y0027548D01*
X0074646Y0027497D01*
X0074682Y0027448D01*
X0074720Y0027402D01*
X0074762Y0027358D01*
X0074806Y0027316D01*
X0074852Y0027278D01*
X0074901Y0027242D01*
X0074952Y0027209D01*
X0075004Y0027180D01*
X0075059Y0027153D01*
X0075114Y0027130D01*
X0075171Y0027110D01*
X0075230Y0027094D01*
X0075289Y0027081D01*
X0075348Y0027072D01*
X0075409Y0027067D01*
X0075469Y0027065D01*
X0083469Y0027065D01*
X0083529Y0027067D01*
X0083590Y0027072D01*
X0083649Y0027081D01*
X0083708Y0027094D01*
X0083767Y0027110D01*
X0083824Y0027130D01*
X0083879Y0027153D01*
X0083934Y0027180D01*
X0083986Y0027209D01*
X0084037Y0027242D01*
X0084086Y0027278D01*
X0084132Y0027316D01*
X0084176Y0027358D01*
X0084218Y0027402D01*
X0084256Y0027448D01*
X0084292Y0027497D01*
X0084325Y0027548D01*
X0084354Y0027600D01*
X0084381Y0027655D01*
X0084404Y0027710D01*
X0084424Y0027767D01*
X0084440Y0027826D01*
X0084453Y0027885D01*
X0084462Y0027944D01*
X0084467Y0028005D01*
X0084469Y0028065D01*
X0079469Y0035065D02*
X0079469Y0035565D01*
X0079469Y0037565D02*
X0079469Y0038065D01*
X0065662Y0038573D02*
X0065662Y0037073D01*
X0065660Y0037013D01*
X0065655Y0036952D01*
X0065646Y0036893D01*
X0065633Y0036834D01*
X0065617Y0036775D01*
X0065597Y0036718D01*
X0065574Y0036663D01*
X0065547Y0036608D01*
X0065518Y0036556D01*
X0065485Y0036505D01*
X0065449Y0036456D01*
X0065411Y0036410D01*
X0065369Y0036366D01*
X0065325Y0036324D01*
X0065279Y0036286D01*
X0065230Y0036250D01*
X0065179Y0036217D01*
X0065127Y0036188D01*
X0065072Y0036161D01*
X0065017Y0036138D01*
X0064960Y0036118D01*
X0064901Y0036102D01*
X0064842Y0036089D01*
X0064783Y0036080D01*
X0064722Y0036075D01*
X0064662Y0036073D01*
X0057662Y0036073D01*
X0057602Y0036075D01*
X0057541Y0036080D01*
X0057482Y0036089D01*
X0057423Y0036102D01*
X0057364Y0036118D01*
X0057307Y0036138D01*
X0057252Y0036161D01*
X0057197Y0036188D01*
X0057145Y0036217D01*
X0057094Y0036250D01*
X0057045Y0036286D01*
X0056999Y0036324D01*
X0056955Y0036366D01*
X0056913Y0036410D01*
X0056875Y0036456D01*
X0056839Y0036505D01*
X0056806Y0036556D01*
X0056777Y0036608D01*
X0056750Y0036663D01*
X0056727Y0036718D01*
X0056707Y0036775D01*
X0056691Y0036834D01*
X0056678Y0036893D01*
X0056669Y0036952D01*
X0056664Y0037013D01*
X0056662Y0037073D01*
X0056662Y0038573D01*
X0057162Y0039073D01*
X0057162Y0058073D01*
X0056662Y0058573D01*
X0056662Y0060073D01*
X0056664Y0060133D01*
X0056669Y0060194D01*
X0056678Y0060253D01*
X0056691Y0060312D01*
X0056707Y0060371D01*
X0056727Y0060428D01*
X0056750Y0060483D01*
X0056777Y0060538D01*
X0056806Y0060590D01*
X0056839Y0060641D01*
X0056875Y0060690D01*
X0056913Y0060736D01*
X0056955Y0060780D01*
X0056999Y0060822D01*
X0057045Y0060860D01*
X0057094Y0060896D01*
X0057145Y0060929D01*
X0057197Y0060958D01*
X0057252Y0060985D01*
X0057307Y0061008D01*
X0057364Y0061028D01*
X0057423Y0061044D01*
X0057482Y0061057D01*
X0057541Y0061066D01*
X0057602Y0061071D01*
X0057662Y0061073D01*
X0064662Y0061073D01*
X0064722Y0061071D01*
X0064783Y0061066D01*
X0064842Y0061057D01*
X0064901Y0061044D01*
X0064960Y0061028D01*
X0065017Y0061008D01*
X0065072Y0060985D01*
X0065127Y0060958D01*
X0065179Y0060929D01*
X0065230Y0060896D01*
X0065279Y0060860D01*
X0065325Y0060822D01*
X0065369Y0060780D01*
X0065411Y0060736D01*
X0065449Y0060690D01*
X0065485Y0060641D01*
X0065518Y0060590D01*
X0065547Y0060538D01*
X0065574Y0060483D01*
X0065597Y0060428D01*
X0065617Y0060371D01*
X0065633Y0060312D01*
X0065646Y0060253D01*
X0065655Y0060194D01*
X0065660Y0060133D01*
X0065662Y0060073D01*
X0065662Y0058573D01*
X0065162Y0058073D01*
X0065162Y0039073D01*
X0065662Y0038573D01*
X0055032Y0038573D02*
X0055032Y0037073D01*
X0055030Y0037013D01*
X0055025Y0036952D01*
X0055016Y0036893D01*
X0055003Y0036834D01*
X0054987Y0036775D01*
X0054967Y0036718D01*
X0054944Y0036663D01*
X0054917Y0036608D01*
X0054888Y0036556D01*
X0054855Y0036505D01*
X0054819Y0036456D01*
X0054781Y0036410D01*
X0054739Y0036366D01*
X0054695Y0036324D01*
X0054649Y0036286D01*
X0054600Y0036250D01*
X0054549Y0036217D01*
X0054497Y0036188D01*
X0054442Y0036161D01*
X0054387Y0036138D01*
X0054330Y0036118D01*
X0054271Y0036102D01*
X0054212Y0036089D01*
X0054153Y0036080D01*
X0054092Y0036075D01*
X0054032Y0036073D01*
X0047032Y0036073D01*
X0046972Y0036075D01*
X0046911Y0036080D01*
X0046852Y0036089D01*
X0046793Y0036102D01*
X0046734Y0036118D01*
X0046677Y0036138D01*
X0046622Y0036161D01*
X0046567Y0036188D01*
X0046515Y0036217D01*
X0046464Y0036250D01*
X0046415Y0036286D01*
X0046369Y0036324D01*
X0046325Y0036366D01*
X0046283Y0036410D01*
X0046245Y0036456D01*
X0046209Y0036505D01*
X0046176Y0036556D01*
X0046147Y0036608D01*
X0046120Y0036663D01*
X0046097Y0036718D01*
X0046077Y0036775D01*
X0046061Y0036834D01*
X0046048Y0036893D01*
X0046039Y0036952D01*
X0046034Y0037013D01*
X0046032Y0037073D01*
X0046032Y0038573D01*
X0046532Y0039073D01*
X0046532Y0058073D01*
X0046032Y0058573D01*
X0046032Y0060073D01*
X0046034Y0060133D01*
X0046039Y0060194D01*
X0046048Y0060253D01*
X0046061Y0060312D01*
X0046077Y0060371D01*
X0046097Y0060428D01*
X0046120Y0060483D01*
X0046147Y0060538D01*
X0046176Y0060590D01*
X0046209Y0060641D01*
X0046245Y0060690D01*
X0046283Y0060736D01*
X0046325Y0060780D01*
X0046369Y0060822D01*
X0046415Y0060860D01*
X0046464Y0060896D01*
X0046515Y0060929D01*
X0046567Y0060958D01*
X0046622Y0060985D01*
X0046677Y0061008D01*
X0046734Y0061028D01*
X0046793Y0061044D01*
X0046852Y0061057D01*
X0046911Y0061066D01*
X0046972Y0061071D01*
X0047032Y0061073D01*
X0054032Y0061073D01*
X0054092Y0061071D01*
X0054153Y0061066D01*
X0054212Y0061057D01*
X0054271Y0061044D01*
X0054330Y0061028D01*
X0054387Y0061008D01*
X0054442Y0060985D01*
X0054497Y0060958D01*
X0054549Y0060929D01*
X0054600Y0060896D01*
X0054649Y0060860D01*
X0054695Y0060822D01*
X0054739Y0060780D01*
X0054781Y0060736D01*
X0054819Y0060690D01*
X0054855Y0060641D01*
X0054888Y0060590D01*
X0054917Y0060538D01*
X0054944Y0060483D01*
X0054967Y0060428D01*
X0054987Y0060371D01*
X0055003Y0060312D01*
X0055016Y0060253D01*
X0055025Y0060194D01*
X0055030Y0060133D01*
X0055032Y0060073D01*
X0055032Y0058573D01*
X0054532Y0058073D01*
X0054532Y0039073D01*
X0055032Y0038573D01*
X0133591Y0076313D02*
X0133591Y0088313D01*
X0136591Y0091313D01*
X0151091Y0091313D01*
X0151167Y0091311D01*
X0151243Y0091305D01*
X0151318Y0091296D01*
X0151393Y0091282D01*
X0151467Y0091265D01*
X0151540Y0091244D01*
X0151612Y0091220D01*
X0151683Y0091191D01*
X0151752Y0091160D01*
X0151819Y0091125D01*
X0151884Y0091086D01*
X0151948Y0091044D01*
X0152009Y0090999D01*
X0152068Y0090951D01*
X0152124Y0090900D01*
X0152178Y0090846D01*
X0152229Y0090790D01*
X0152277Y0090731D01*
X0152322Y0090670D01*
X0152364Y0090606D01*
X0152403Y0090541D01*
X0152438Y0090474D01*
X0152469Y0090405D01*
X0152498Y0090334D01*
X0152522Y0090262D01*
X0152543Y0090189D01*
X0152560Y0090115D01*
X0152574Y0090040D01*
X0152583Y0089965D01*
X0152589Y0089889D01*
X0152591Y0089813D01*
X0152591Y0074813D01*
X0152589Y0074737D01*
X0152583Y0074661D01*
X0152574Y0074586D01*
X0152560Y0074511D01*
X0152543Y0074437D01*
X0152522Y0074364D01*
X0152498Y0074292D01*
X0152469Y0074221D01*
X0152438Y0074152D01*
X0152403Y0074085D01*
X0152364Y0074020D01*
X0152322Y0073956D01*
X0152277Y0073895D01*
X0152229Y0073836D01*
X0152178Y0073780D01*
X0152124Y0073726D01*
X0152068Y0073675D01*
X0152009Y0073627D01*
X0151948Y0073582D01*
X0151884Y0073540D01*
X0151819Y0073501D01*
X0151752Y0073466D01*
X0151683Y0073435D01*
X0151612Y0073406D01*
X0151540Y0073382D01*
X0151467Y0073361D01*
X0151393Y0073344D01*
X0151318Y0073330D01*
X0151243Y0073321D01*
X0151167Y0073315D01*
X0151091Y0073313D01*
X0136591Y0073313D01*
X0133591Y0076313D01*
X0136091Y0086413D02*
X0136091Y0088913D01*
X0137391Y0087713D02*
X0134791Y0087713D01*
X0134091Y0149112D02*
X0142091Y0149112D01*
X0142151Y0149114D01*
X0142212Y0149119D01*
X0142271Y0149128D01*
X0142330Y0149141D01*
X0142389Y0149157D01*
X0142446Y0149177D01*
X0142501Y0149200D01*
X0142556Y0149227D01*
X0142608Y0149256D01*
X0142659Y0149289D01*
X0142708Y0149325D01*
X0142754Y0149363D01*
X0142798Y0149405D01*
X0142840Y0149449D01*
X0142878Y0149495D01*
X0142914Y0149544D01*
X0142947Y0149595D01*
X0142976Y0149647D01*
X0143003Y0149702D01*
X0143026Y0149757D01*
X0143046Y0149814D01*
X0143062Y0149873D01*
X0143075Y0149932D01*
X0143084Y0149991D01*
X0143089Y0150052D01*
X0143091Y0150112D01*
X0143091Y0167112D01*
X0143089Y0167172D01*
X0143084Y0167233D01*
X0143075Y0167292D01*
X0143062Y0167351D01*
X0143046Y0167410D01*
X0143026Y0167467D01*
X0143003Y0167522D01*
X0142976Y0167577D01*
X0142947Y0167629D01*
X0142914Y0167680D01*
X0142878Y0167729D01*
X0142840Y0167775D01*
X0142798Y0167819D01*
X0142754Y0167861D01*
X0142708Y0167899D01*
X0142659Y0167935D01*
X0142608Y0167968D01*
X0142556Y0167997D01*
X0142501Y0168024D01*
X0142446Y0168047D01*
X0142389Y0168067D01*
X0142330Y0168083D01*
X0142271Y0168096D01*
X0142212Y0168105D01*
X0142151Y0168110D01*
X0142091Y0168112D01*
X0134091Y0168112D01*
X0134031Y0168110D01*
X0133970Y0168105D01*
X0133911Y0168096D01*
X0133852Y0168083D01*
X0133793Y0168067D01*
X0133736Y0168047D01*
X0133681Y0168024D01*
X0133626Y0167997D01*
X0133574Y0167968D01*
X0133523Y0167935D01*
X0133474Y0167899D01*
X0133428Y0167861D01*
X0133384Y0167819D01*
X0133342Y0167775D01*
X0133304Y0167729D01*
X0133268Y0167680D01*
X0133235Y0167629D01*
X0133206Y0167577D01*
X0133179Y0167522D01*
X0133156Y0167467D01*
X0133136Y0167410D01*
X0133120Y0167351D01*
X0133107Y0167292D01*
X0133098Y0167233D01*
X0133093Y0167172D01*
X0133091Y0167112D01*
X0133091Y0150112D01*
X0133093Y0150052D01*
X0133098Y0149991D01*
X0133107Y0149932D01*
X0133120Y0149873D01*
X0133136Y0149814D01*
X0133156Y0149757D01*
X0133179Y0149702D01*
X0133206Y0149647D01*
X0133235Y0149595D01*
X0133268Y0149544D01*
X0133304Y0149495D01*
X0133342Y0149449D01*
X0133384Y0149405D01*
X0133428Y0149363D01*
X0133474Y0149325D01*
X0133523Y0149289D01*
X0133574Y0149256D01*
X0133626Y0149227D01*
X0133681Y0149200D01*
X0133736Y0149177D01*
X0133793Y0149157D01*
X0133852Y0149141D01*
X0133911Y0149128D01*
X0133970Y0149119D01*
X0134031Y0149114D01*
X0134091Y0149112D01*
X0138091Y0157112D02*
X0138091Y0157612D01*
X0138091Y0159612D02*
X0138091Y0160112D01*
X0132347Y0171801D02*
X0149347Y0171801D01*
X0149407Y0171803D01*
X0149468Y0171808D01*
X0149527Y0171817D01*
X0149586Y0171830D01*
X0149645Y0171846D01*
X0149702Y0171866D01*
X0149757Y0171889D01*
X0149812Y0171916D01*
X0149864Y0171945D01*
X0149915Y0171978D01*
X0149964Y0172014D01*
X0150010Y0172052D01*
X0150054Y0172094D01*
X0150096Y0172138D01*
X0150134Y0172184D01*
X0150170Y0172233D01*
X0150203Y0172284D01*
X0150232Y0172336D01*
X0150259Y0172391D01*
X0150282Y0172446D01*
X0150302Y0172503D01*
X0150318Y0172562D01*
X0150331Y0172621D01*
X0150340Y0172680D01*
X0150345Y0172741D01*
X0150347Y0172801D01*
X0150347Y0180801D01*
X0150345Y0180861D01*
X0150340Y0180922D01*
X0150331Y0180981D01*
X0150318Y0181040D01*
X0150302Y0181099D01*
X0150282Y0181156D01*
X0150259Y0181211D01*
X0150232Y0181266D01*
X0150203Y0181318D01*
X0150170Y0181369D01*
X0150134Y0181418D01*
X0150096Y0181464D01*
X0150054Y0181508D01*
X0150010Y0181550D01*
X0149964Y0181588D01*
X0149915Y0181624D01*
X0149864Y0181657D01*
X0149812Y0181686D01*
X0149757Y0181713D01*
X0149702Y0181736D01*
X0149645Y0181756D01*
X0149586Y0181772D01*
X0149527Y0181785D01*
X0149468Y0181794D01*
X0149407Y0181799D01*
X0149347Y0181801D01*
X0132347Y0181801D01*
X0132287Y0181799D01*
X0132226Y0181794D01*
X0132167Y0181785D01*
X0132108Y0181772D01*
X0132049Y0181756D01*
X0131992Y0181736D01*
X0131937Y0181713D01*
X0131882Y0181686D01*
X0131830Y0181657D01*
X0131779Y0181624D01*
X0131730Y0181588D01*
X0131684Y0181550D01*
X0131640Y0181508D01*
X0131598Y0181464D01*
X0131560Y0181418D01*
X0131524Y0181369D01*
X0131491Y0181318D01*
X0131462Y0181266D01*
X0131435Y0181211D01*
X0131412Y0181156D01*
X0131392Y0181099D01*
X0131376Y0181040D01*
X0131363Y0180981D01*
X0131354Y0180922D01*
X0131349Y0180861D01*
X0131347Y0180801D01*
X0131347Y0172801D01*
X0131349Y0172741D01*
X0131354Y0172680D01*
X0131363Y0172621D01*
X0131376Y0172562D01*
X0131392Y0172503D01*
X0131412Y0172446D01*
X0131435Y0172391D01*
X0131462Y0172336D01*
X0131491Y0172284D01*
X0131524Y0172233D01*
X0131560Y0172184D01*
X0131598Y0172138D01*
X0131640Y0172094D01*
X0131684Y0172052D01*
X0131730Y0172014D01*
X0131779Y0171978D01*
X0131830Y0171945D01*
X0131882Y0171916D01*
X0131937Y0171889D01*
X0131992Y0171866D01*
X0132049Y0171846D01*
X0132108Y0171830D01*
X0132167Y0171817D01*
X0132226Y0171808D01*
X0132287Y0171803D01*
X0132347Y0171801D01*
X0127206Y0174238D02*
X0110710Y0174238D01*
X0110084Y0179738D02*
X0108505Y0179738D01*
X0117832Y0179738D02*
X0120084Y0179738D01*
X0127206Y0174238D02*
X0127361Y0174440D01*
X0127511Y0174645D01*
X0127657Y0174854D01*
X0127797Y0175067D01*
X0127931Y0175282D01*
X0128061Y0175502D01*
X0128185Y0175724D01*
X0128304Y0175949D01*
X0128417Y0176177D01*
X0128525Y0176407D01*
X0128627Y0176640D01*
X0128724Y0176876D01*
X0128815Y0177113D01*
X0128900Y0177353D01*
X0128979Y0177595D01*
X0129052Y0177839D01*
X0129119Y0178084D01*
X0129180Y0178331D01*
X0129236Y0178580D01*
X0129285Y0178829D01*
X0129328Y0179080D01*
X0129365Y0179332D01*
X0129396Y0179585D01*
X0129421Y0179838D01*
X0129440Y0180092D01*
X0129453Y0180346D01*
X0129459Y0180600D01*
X0129459Y0180855D01*
X0129453Y0181109D01*
X0129441Y0181363D01*
X0129423Y0181617D01*
X0129399Y0181871D01*
X0129368Y0182123D01*
X0129332Y0182375D01*
X0129289Y0182626D01*
X0129240Y0182876D01*
X0129185Y0183124D01*
X0129124Y0183371D01*
X0129058Y0183617D01*
X0128985Y0183861D01*
X0128906Y0184103D01*
X0128822Y0184343D01*
X0128732Y0184581D01*
X0128636Y0184816D01*
X0128534Y0185050D01*
X0128427Y0185281D01*
X0128314Y0185509D01*
X0128195Y0185734D01*
X0128072Y0185956D01*
X0127942Y0186176D01*
X0127808Y0186392D01*
X0127668Y0186604D01*
X0127524Y0186814D01*
X0127374Y0187019D01*
X0127219Y0187222D01*
X0127060Y0187420D01*
X0126895Y0187614D01*
X0126726Y0187804D01*
X0126553Y0187991D01*
X0126375Y0188172D01*
X0126192Y0188350D01*
X0126006Y0188523D01*
X0125815Y0188692D01*
X0125620Y0188855D01*
X0125422Y0189014D01*
X0125219Y0189169D01*
X0125013Y0189318D01*
X0124803Y0189462D01*
X0124590Y0189601D01*
X0124374Y0189735D01*
X0124154Y0189863D01*
X0123931Y0189987D01*
X0123706Y0190104D01*
X0123477Y0190217D01*
X0123246Y0190323D01*
X0123013Y0190424D01*
X0122777Y0190520D01*
X0122539Y0190609D01*
X0122298Y0190693D01*
X0122056Y0190771D01*
X0115860Y0190771D02*
X0115618Y0190693D01*
X0115377Y0190609D01*
X0115139Y0190520D01*
X0114903Y0190424D01*
X0114670Y0190323D01*
X0114439Y0190217D01*
X0114210Y0190104D01*
X0113985Y0189987D01*
X0113762Y0189863D01*
X0113542Y0189735D01*
X0113326Y0189601D01*
X0113113Y0189462D01*
X0112903Y0189318D01*
X0112697Y0189169D01*
X0112494Y0189014D01*
X0112296Y0188855D01*
X0112101Y0188692D01*
X0111910Y0188523D01*
X0111724Y0188350D01*
X0111541Y0188172D01*
X0111363Y0187991D01*
X0111190Y0187804D01*
X0111021Y0187614D01*
X0110856Y0187420D01*
X0110697Y0187222D01*
X0110542Y0187019D01*
X0110392Y0186814D01*
X0110248Y0186604D01*
X0110108Y0186392D01*
X0109974Y0186176D01*
X0109844Y0185956D01*
X0109721Y0185734D01*
X0109602Y0185509D01*
X0109489Y0185281D01*
X0109382Y0185050D01*
X0109280Y0184816D01*
X0109184Y0184581D01*
X0109094Y0184343D01*
X0109010Y0184103D01*
X0108931Y0183861D01*
X0108858Y0183617D01*
X0108792Y0183371D01*
X0108731Y0183124D01*
X0108676Y0182876D01*
X0108627Y0182626D01*
X0108584Y0182375D01*
X0108548Y0182123D01*
X0108517Y0181871D01*
X0108493Y0181617D01*
X0108475Y0181363D01*
X0108463Y0181109D01*
X0108457Y0180855D01*
X0108457Y0180600D01*
X0108463Y0180346D01*
X0108476Y0180092D01*
X0108495Y0179838D01*
X0108520Y0179585D01*
X0108551Y0179332D01*
X0108588Y0179080D01*
X0108631Y0178829D01*
X0108680Y0178580D01*
X0108736Y0178331D01*
X0108797Y0178084D01*
X0108864Y0177839D01*
X0108937Y0177595D01*
X0109016Y0177353D01*
X0109101Y0177113D01*
X0109192Y0176876D01*
X0109289Y0176640D01*
X0109391Y0176407D01*
X0109499Y0176177D01*
X0109612Y0175949D01*
X0109731Y0175724D01*
X0109855Y0175502D01*
X0109985Y0175282D01*
X0110119Y0175067D01*
X0110259Y0174854D01*
X0110405Y0174645D01*
X0110555Y0174440D01*
X0110710Y0174238D01*
X0127832Y0179738D02*
X0129410Y0179738D01*
X0139347Y0176801D02*
X0139847Y0176801D01*
X0141847Y0176801D02*
X0142347Y0176801D01*
X0134395Y0189045D02*
X0151395Y0189045D01*
X0151455Y0189047D01*
X0151516Y0189052D01*
X0151575Y0189061D01*
X0151634Y0189074D01*
X0151693Y0189090D01*
X0151750Y0189110D01*
X0151805Y0189133D01*
X0151860Y0189160D01*
X0151912Y0189189D01*
X0151963Y0189222D01*
X0152012Y0189258D01*
X0152058Y0189296D01*
X0152102Y0189338D01*
X0152144Y0189382D01*
X0152182Y0189428D01*
X0152218Y0189477D01*
X0152251Y0189528D01*
X0152280Y0189580D01*
X0152307Y0189635D01*
X0152330Y0189690D01*
X0152350Y0189747D01*
X0152366Y0189806D01*
X0152379Y0189865D01*
X0152388Y0189924D01*
X0152393Y0189985D01*
X0152395Y0190045D01*
X0152395Y0198045D01*
X0152393Y0198105D01*
X0152388Y0198166D01*
X0152379Y0198225D01*
X0152366Y0198284D01*
X0152350Y0198343D01*
X0152330Y0198400D01*
X0152307Y0198455D01*
X0152280Y0198510D01*
X0152251Y0198562D01*
X0152218Y0198613D01*
X0152182Y0198662D01*
X0152144Y0198708D01*
X0152102Y0198752D01*
X0152058Y0198794D01*
X0152012Y0198832D01*
X0151963Y0198868D01*
X0151912Y0198901D01*
X0151860Y0198930D01*
X0151805Y0198957D01*
X0151750Y0198980D01*
X0151693Y0199000D01*
X0151634Y0199016D01*
X0151575Y0199029D01*
X0151516Y0199038D01*
X0151455Y0199043D01*
X0151395Y0199045D01*
X0134395Y0199045D01*
X0134335Y0199043D01*
X0134274Y0199038D01*
X0134215Y0199029D01*
X0134156Y0199016D01*
X0134097Y0199000D01*
X0134040Y0198980D01*
X0133985Y0198957D01*
X0133930Y0198930D01*
X0133878Y0198901D01*
X0133827Y0198868D01*
X0133778Y0198832D01*
X0133732Y0198794D01*
X0133688Y0198752D01*
X0133646Y0198708D01*
X0133608Y0198662D01*
X0133572Y0198613D01*
X0133539Y0198562D01*
X0133510Y0198510D01*
X0133483Y0198455D01*
X0133460Y0198400D01*
X0133440Y0198343D01*
X0133424Y0198284D01*
X0133411Y0198225D01*
X0133402Y0198166D01*
X0133397Y0198105D01*
X0133395Y0198045D01*
X0133395Y0190045D01*
X0133397Y0189985D01*
X0133402Y0189924D01*
X0133411Y0189865D01*
X0133424Y0189806D01*
X0133440Y0189747D01*
X0133460Y0189690D01*
X0133483Y0189635D01*
X0133510Y0189580D01*
X0133539Y0189528D01*
X0133572Y0189477D01*
X0133608Y0189428D01*
X0133646Y0189382D01*
X0133688Y0189338D01*
X0133732Y0189296D01*
X0133778Y0189258D01*
X0133827Y0189222D01*
X0133878Y0189189D01*
X0133930Y0189160D01*
X0133985Y0189133D01*
X0134040Y0189110D01*
X0134097Y0189090D01*
X0134156Y0189074D01*
X0134215Y0189061D01*
X0134274Y0189052D01*
X0134335Y0189047D01*
X0134395Y0189045D01*
X0141395Y0194045D02*
X0141895Y0194045D01*
X0143895Y0194045D02*
X0144395Y0194045D01*
X0164458Y0194612D02*
X0164458Y0182612D01*
X0167458Y0179612D01*
X0181958Y0179612D01*
X0182034Y0179614D01*
X0182110Y0179620D01*
X0182185Y0179629D01*
X0182260Y0179643D01*
X0182334Y0179660D01*
X0182407Y0179681D01*
X0182479Y0179705D01*
X0182550Y0179734D01*
X0182619Y0179765D01*
X0182686Y0179800D01*
X0182751Y0179839D01*
X0182815Y0179881D01*
X0182876Y0179926D01*
X0182935Y0179974D01*
X0182991Y0180025D01*
X0183045Y0180079D01*
X0183096Y0180135D01*
X0183144Y0180194D01*
X0183189Y0180255D01*
X0183231Y0180319D01*
X0183270Y0180384D01*
X0183305Y0180451D01*
X0183336Y0180520D01*
X0183365Y0180591D01*
X0183389Y0180663D01*
X0183410Y0180736D01*
X0183427Y0180810D01*
X0183441Y0180885D01*
X0183450Y0180960D01*
X0183456Y0181036D01*
X0183458Y0181112D01*
X0183458Y0196112D01*
X0183456Y0196188D01*
X0183450Y0196264D01*
X0183441Y0196339D01*
X0183427Y0196414D01*
X0183410Y0196488D01*
X0183389Y0196561D01*
X0183365Y0196633D01*
X0183336Y0196704D01*
X0183305Y0196773D01*
X0183270Y0196840D01*
X0183231Y0196905D01*
X0183189Y0196969D01*
X0183144Y0197030D01*
X0183096Y0197089D01*
X0183045Y0197145D01*
X0182991Y0197199D01*
X0182935Y0197250D01*
X0182876Y0197298D01*
X0182815Y0197343D01*
X0182751Y0197385D01*
X0182686Y0197424D01*
X0182619Y0197459D01*
X0182550Y0197490D01*
X0182479Y0197519D01*
X0182407Y0197543D01*
X0182334Y0197564D01*
X0182260Y0197581D01*
X0182185Y0197595D01*
X0182110Y0197604D01*
X0182034Y0197610D01*
X0181958Y0197612D01*
X0167458Y0197612D01*
X0164458Y0194612D01*
X0165658Y0194012D02*
X0168258Y0194012D01*
X0166958Y0195212D02*
X0166958Y0192712D01*
X0198147Y0175935D02*
X0198145Y0175781D01*
X0198139Y0175627D01*
X0198129Y0175473D01*
X0198115Y0175319D01*
X0198098Y0175166D01*
X0198076Y0175014D01*
X0198050Y0174862D01*
X0198021Y0174710D01*
X0197987Y0174560D01*
X0197950Y0174410D01*
X0197909Y0174262D01*
X0197864Y0174114D01*
X0197815Y0173968D01*
X0197763Y0173823D01*
X0197707Y0173680D01*
X0197647Y0173537D01*
X0197584Y0173397D01*
X0197517Y0173258D01*
X0197446Y0173121D01*
X0197372Y0172986D01*
X0197295Y0172853D01*
X0197214Y0172721D01*
X0197130Y0172592D01*
X0197042Y0172465D01*
X0196951Y0172341D01*
X0196858Y0172219D01*
X0196760Y0172099D01*
X0196660Y0171982D01*
X0196557Y0171867D01*
X0196451Y0171755D01*
X0196343Y0171646D01*
X0196231Y0171540D01*
X0196117Y0171436D01*
X0196000Y0171336D01*
X0195881Y0171238D01*
X0195759Y0171144D01*
X0195634Y0171053D01*
X0186147Y0175935D02*
X0186149Y0176087D01*
X0186155Y0176238D01*
X0186164Y0176389D01*
X0186178Y0176541D01*
X0186195Y0176691D01*
X0186216Y0176841D01*
X0186241Y0176991D01*
X0186269Y0177140D01*
X0186302Y0177288D01*
X0186338Y0177435D01*
X0186377Y0177582D01*
X0186421Y0177727D01*
X0186468Y0177871D01*
X0186519Y0178014D01*
X0186573Y0178155D01*
X0186631Y0178296D01*
X0186692Y0178434D01*
X0186757Y0178571D01*
X0186826Y0178707D01*
X0186897Y0178840D01*
X0186972Y0178972D01*
X0187051Y0179102D01*
X0187132Y0179229D01*
X0187217Y0179355D01*
X0187305Y0179479D01*
X0187396Y0179600D01*
X0187490Y0179719D01*
X0187588Y0179835D01*
X0187688Y0179949D01*
X0187790Y0180061D01*
X0187896Y0180169D01*
X0188004Y0180275D01*
X0188115Y0180379D01*
X0188229Y0180479D01*
X0188345Y0180577D01*
X0188464Y0180671D01*
X0186147Y0175935D02*
X0186149Y0175783D01*
X0186155Y0175632D01*
X0186164Y0175481D01*
X0186178Y0175329D01*
X0186195Y0175179D01*
X0186216Y0175029D01*
X0186241Y0174879D01*
X0186269Y0174730D01*
X0186302Y0174582D01*
X0186338Y0174435D01*
X0186377Y0174288D01*
X0186421Y0174143D01*
X0186468Y0173999D01*
X0186519Y0173856D01*
X0186573Y0173715D01*
X0186631Y0173574D01*
X0186692Y0173436D01*
X0186757Y0173299D01*
X0186826Y0173163D01*
X0186897Y0173030D01*
X0186972Y0172898D01*
X0187051Y0172768D01*
X0187132Y0172641D01*
X0187217Y0172515D01*
X0187305Y0172391D01*
X0187396Y0172270D01*
X0187490Y0172151D01*
X0187588Y0172035D01*
X0187688Y0171921D01*
X0187790Y0171809D01*
X0187896Y0171701D01*
X0188004Y0171595D01*
X0188115Y0171491D01*
X0188229Y0171391D01*
X0188345Y0171293D01*
X0188464Y0171199D01*
X0198147Y0175935D02*
X0198145Y0176085D01*
X0198139Y0176236D01*
X0198130Y0176386D01*
X0198117Y0176535D01*
X0198100Y0176685D01*
X0198079Y0176834D01*
X0198055Y0176982D01*
X0198027Y0177130D01*
X0197995Y0177277D01*
X0197960Y0177423D01*
X0197920Y0177568D01*
X0197878Y0177712D01*
X0197831Y0177855D01*
X0197781Y0177997D01*
X0197728Y0178138D01*
X0197671Y0178277D01*
X0197611Y0178415D01*
X0197547Y0178551D01*
X0197480Y0178685D01*
X0197409Y0178818D01*
X0197335Y0178949D01*
X0197258Y0179078D01*
X0197177Y0179205D01*
X0197094Y0179330D01*
X0197007Y0179453D01*
X0196918Y0179574D01*
X0196825Y0179692D01*
X0196729Y0179808D01*
X0196631Y0179922D01*
X0196530Y0180033D01*
X0196425Y0180142D01*
X0196319Y0180247D01*
X0196209Y0180351D01*
X0196097Y0180451D01*
X0195983Y0180549D01*
X0195866Y0180643D01*
X0195747Y0180735D01*
X0182269Y0162994D02*
X0180769Y0162994D01*
X0180269Y0162494D01*
X0161269Y0162494D01*
X0160769Y0162994D01*
X0159269Y0162994D01*
X0159209Y0162992D01*
X0159148Y0162987D01*
X0159089Y0162978D01*
X0159030Y0162965D01*
X0158971Y0162949D01*
X0158914Y0162929D01*
X0158859Y0162906D01*
X0158804Y0162879D01*
X0158752Y0162850D01*
X0158701Y0162817D01*
X0158652Y0162781D01*
X0158606Y0162743D01*
X0158562Y0162701D01*
X0158520Y0162657D01*
X0158482Y0162611D01*
X0158446Y0162562D01*
X0158413Y0162511D01*
X0158384Y0162459D01*
X0158357Y0162404D01*
X0158334Y0162349D01*
X0158314Y0162292D01*
X0158298Y0162233D01*
X0158285Y0162174D01*
X0158276Y0162115D01*
X0158271Y0162054D01*
X0158269Y0161994D01*
X0158269Y0154994D01*
X0158271Y0154934D01*
X0158276Y0154873D01*
X0158285Y0154814D01*
X0158298Y0154755D01*
X0158314Y0154696D01*
X0158334Y0154639D01*
X0158357Y0154584D01*
X0158384Y0154529D01*
X0158413Y0154477D01*
X0158446Y0154426D01*
X0158482Y0154377D01*
X0158520Y0154331D01*
X0158562Y0154287D01*
X0158606Y0154245D01*
X0158652Y0154207D01*
X0158701Y0154171D01*
X0158752Y0154138D01*
X0158804Y0154109D01*
X0158859Y0154082D01*
X0158914Y0154059D01*
X0158971Y0154039D01*
X0159030Y0154023D01*
X0159089Y0154010D01*
X0159148Y0154001D01*
X0159209Y0153996D01*
X0159269Y0153994D01*
X0160769Y0153994D01*
X0161269Y0154494D01*
X0180269Y0154494D01*
X0180769Y0153994D01*
X0182269Y0153994D01*
X0182329Y0153996D01*
X0182390Y0154001D01*
X0182449Y0154010D01*
X0182508Y0154023D01*
X0182567Y0154039D01*
X0182624Y0154059D01*
X0182679Y0154082D01*
X0182734Y0154109D01*
X0182786Y0154138D01*
X0182837Y0154171D01*
X0182886Y0154207D01*
X0182932Y0154245D01*
X0182976Y0154287D01*
X0183018Y0154331D01*
X0183056Y0154377D01*
X0183092Y0154426D01*
X0183125Y0154477D01*
X0183154Y0154529D01*
X0183181Y0154584D01*
X0183204Y0154639D01*
X0183224Y0154696D01*
X0183240Y0154755D01*
X0183253Y0154814D01*
X0183262Y0154873D01*
X0183267Y0154934D01*
X0183269Y0154994D01*
X0183269Y0161994D01*
X0183267Y0162054D01*
X0183262Y0162115D01*
X0183253Y0162174D01*
X0183240Y0162233D01*
X0183224Y0162292D01*
X0183204Y0162349D01*
X0183181Y0162404D01*
X0183154Y0162459D01*
X0183125Y0162511D01*
X0183092Y0162562D01*
X0183056Y0162611D01*
X0183018Y0162657D01*
X0182976Y0162701D01*
X0182932Y0162743D01*
X0182886Y0162781D01*
X0182837Y0162817D01*
X0182786Y0162850D01*
X0182734Y0162879D01*
X0182679Y0162906D01*
X0182624Y0162929D01*
X0182567Y0162949D01*
X0182508Y0162965D01*
X0182449Y0162978D01*
X0182390Y0162987D01*
X0182329Y0162992D01*
X0182269Y0162994D01*
D70*
X0200147Y0175935D02*
X0200145Y0176127D01*
X0200138Y0176319D01*
X0200126Y0176511D01*
X0200110Y0176703D01*
X0200089Y0176894D01*
X0200064Y0177084D01*
X0200034Y0177274D01*
X0200000Y0177463D01*
X0199961Y0177651D01*
X0199917Y0177838D01*
X0199869Y0178024D01*
X0199817Y0178209D01*
X0199760Y0178393D01*
X0199699Y0178575D01*
X0199633Y0178755D01*
X0199563Y0178934D01*
X0199489Y0179112D01*
X0199411Y0179287D01*
X0199328Y0179461D01*
X0199241Y0179632D01*
X0199151Y0179801D01*
X0199056Y0179968D01*
X0198957Y0180133D01*
X0198854Y0180296D01*
X0198747Y0180455D01*
X0198637Y0180613D01*
X0198523Y0180767D01*
X0198405Y0180919D01*
X0198283Y0181068D01*
X0198158Y0181214D01*
X0198030Y0181356D01*
X0197898Y0181496D01*
X0197763Y0181633D01*
X0197624Y0181766D01*
X0197483Y0181896D01*
X0197338Y0182022D01*
X0197190Y0182145D01*
X0197040Y0182264D01*
X0196886Y0182380D01*
X0196730Y0182492D01*
X0196571Y0182600D01*
X0196410Y0182705D01*
X0196246Y0182805D01*
X0196080Y0182901D01*
X0195912Y0182994D01*
X0188178Y0182881D02*
X0188009Y0182782D01*
X0187843Y0182678D01*
X0187679Y0182571D01*
X0187518Y0182460D01*
X0187360Y0182345D01*
X0187205Y0182226D01*
X0187052Y0182103D01*
X0186903Y0181977D01*
X0186757Y0181847D01*
X0186614Y0181713D01*
X0186474Y0181576D01*
X0186338Y0181436D01*
X0186205Y0181292D01*
X0186076Y0181145D01*
X0185950Y0180995D01*
X0185829Y0180842D01*
X0185710Y0180686D01*
X0185596Y0180527D01*
X0185486Y0180366D01*
X0185380Y0180201D01*
X0185277Y0180035D01*
X0185179Y0179865D01*
X0185085Y0179694D01*
X0184995Y0179520D01*
X0184910Y0179344D01*
X0184828Y0179166D01*
X0184752Y0178986D01*
X0184679Y0178804D01*
X0184611Y0178621D01*
X0184548Y0178436D01*
X0184489Y0178249D01*
X0184435Y0178061D01*
X0184385Y0177872D01*
X0184340Y0177682D01*
X0184300Y0177490D01*
X0184264Y0177298D01*
X0184233Y0177105D01*
X0184207Y0176911D01*
X0184185Y0176716D01*
X0184169Y0176521D01*
X0184157Y0176326D01*
X0184149Y0176130D01*
X0184147Y0175935D01*
X0184149Y0175742D01*
X0184156Y0175549D01*
X0184168Y0175357D01*
X0184184Y0175164D01*
X0184205Y0174972D01*
X0184231Y0174781D01*
X0184261Y0174591D01*
X0184296Y0174401D01*
X0184335Y0174212D01*
X0184379Y0174024D01*
X0184427Y0173837D01*
X0184480Y0173651D01*
X0184537Y0173467D01*
X0184599Y0173284D01*
X0184665Y0173103D01*
X0184736Y0172923D01*
X0184810Y0172745D01*
X0184889Y0172569D01*
X0184973Y0172395D01*
X0185060Y0172223D01*
X0185152Y0172053D01*
X0185248Y0171886D01*
X0185347Y0171720D01*
X0185451Y0171557D01*
X0185558Y0171397D01*
X0185670Y0171240D01*
X0185785Y0171085D01*
X0185904Y0170933D01*
X0186026Y0170784D01*
X0186152Y0170637D01*
X0186282Y0170494D01*
X0186415Y0170354D01*
X0186551Y0170218D01*
X0186691Y0170084D01*
X0186833Y0169955D01*
X0186979Y0169828D01*
X0197269Y0169789D02*
X0197417Y0169916D01*
X0197562Y0170046D01*
X0197703Y0170179D01*
X0197842Y0170316D01*
X0197977Y0170456D01*
X0198108Y0170600D01*
X0198236Y0170747D01*
X0198361Y0170896D01*
X0198482Y0171049D01*
X0198599Y0171204D01*
X0198712Y0171363D01*
X0198821Y0171524D01*
X0198926Y0171688D01*
X0199028Y0171854D01*
X0199125Y0172023D01*
X0199218Y0172193D01*
X0199307Y0172367D01*
X0199392Y0172542D01*
X0199472Y0172719D01*
X0199548Y0172898D01*
X0199620Y0173079D01*
X0199687Y0173262D01*
X0199750Y0173446D01*
X0199808Y0173632D01*
X0199862Y0173819D01*
X0199911Y0174007D01*
X0199956Y0174197D01*
X0199996Y0174387D01*
X0200031Y0174579D01*
X0200062Y0174771D01*
X0200088Y0174964D01*
X0200109Y0175158D01*
X0200126Y0175352D01*
X0200138Y0175546D01*
X0200145Y0175740D01*
X0200147Y0175935D01*
X0143895Y0191045D02*
X0143895Y0194045D01*
X0143895Y0197045D01*
X0141895Y0197045D02*
X0141895Y0194045D01*
X0141895Y0191045D01*
X0141847Y0179801D02*
X0141847Y0176801D01*
X0141847Y0173801D01*
X0139847Y0173801D02*
X0139847Y0176801D01*
X0139847Y0179801D01*
X0141091Y0159612D02*
X0138091Y0159612D01*
X0135091Y0159612D01*
X0135091Y0157612D02*
X0138091Y0157612D01*
X0141091Y0157612D01*
X0082469Y0037565D02*
X0079469Y0037565D01*
X0076469Y0037565D01*
X0076469Y0035565D02*
X0079469Y0035565D01*
X0082469Y0035565D01*
X0125712Y0010549D02*
X0125811Y0010380D01*
X0125915Y0010214D01*
X0126022Y0010050D01*
X0126133Y0009889D01*
X0126248Y0009731D01*
X0126367Y0009576D01*
X0126490Y0009423D01*
X0126616Y0009274D01*
X0126746Y0009128D01*
X0126880Y0008985D01*
X0127017Y0008845D01*
X0127157Y0008709D01*
X0127301Y0008576D01*
X0127448Y0008447D01*
X0127598Y0008321D01*
X0127751Y0008200D01*
X0127907Y0008081D01*
X0128066Y0007967D01*
X0128227Y0007857D01*
X0128392Y0007751D01*
X0128558Y0007648D01*
X0128728Y0007550D01*
X0128899Y0007456D01*
X0129073Y0007366D01*
X0129249Y0007281D01*
X0129427Y0007199D01*
X0129607Y0007123D01*
X0129789Y0007050D01*
X0129972Y0006982D01*
X0130157Y0006919D01*
X0130344Y0006860D01*
X0130532Y0006806D01*
X0130721Y0006756D01*
X0130911Y0006711D01*
X0131103Y0006671D01*
X0131295Y0006635D01*
X0131488Y0006604D01*
X0131682Y0006578D01*
X0131877Y0006556D01*
X0132072Y0006540D01*
X0132267Y0006528D01*
X0132463Y0006520D01*
X0132658Y0006518D01*
X0125600Y0018283D02*
X0125693Y0018451D01*
X0125789Y0018617D01*
X0125889Y0018781D01*
X0125994Y0018942D01*
X0126102Y0019101D01*
X0126214Y0019257D01*
X0126330Y0019411D01*
X0126449Y0019561D01*
X0126572Y0019709D01*
X0126698Y0019854D01*
X0126828Y0019995D01*
X0126961Y0020134D01*
X0127098Y0020269D01*
X0127238Y0020401D01*
X0127380Y0020529D01*
X0127526Y0020654D01*
X0127675Y0020776D01*
X0127827Y0020894D01*
X0127981Y0021008D01*
X0128139Y0021118D01*
X0128298Y0021225D01*
X0128461Y0021328D01*
X0128626Y0021427D01*
X0128793Y0021522D01*
X0128962Y0021612D01*
X0129133Y0021699D01*
X0129307Y0021782D01*
X0129482Y0021860D01*
X0129660Y0021934D01*
X0129839Y0022004D01*
X0130019Y0022070D01*
X0130201Y0022131D01*
X0130385Y0022188D01*
X0130570Y0022240D01*
X0130756Y0022288D01*
X0130943Y0022332D01*
X0131131Y0022371D01*
X0131320Y0022405D01*
X0131510Y0022435D01*
X0131700Y0022460D01*
X0131891Y0022481D01*
X0132083Y0022497D01*
X0132275Y0022509D01*
X0132467Y0022516D01*
X0132659Y0022518D01*
X0138766Y0009350D02*
X0138639Y0009204D01*
X0138510Y0009062D01*
X0138376Y0008922D01*
X0138240Y0008786D01*
X0138100Y0008653D01*
X0137957Y0008523D01*
X0137810Y0008397D01*
X0137661Y0008275D01*
X0137509Y0008156D01*
X0137354Y0008041D01*
X0137197Y0007929D01*
X0137037Y0007822D01*
X0136874Y0007718D01*
X0136708Y0007619D01*
X0136541Y0007523D01*
X0136371Y0007431D01*
X0136199Y0007344D01*
X0136025Y0007260D01*
X0135849Y0007181D01*
X0135671Y0007107D01*
X0135491Y0007036D01*
X0135310Y0006970D01*
X0135127Y0006908D01*
X0134943Y0006851D01*
X0134757Y0006798D01*
X0134570Y0006750D01*
X0134382Y0006706D01*
X0134193Y0006667D01*
X0134003Y0006632D01*
X0133813Y0006602D01*
X0133622Y0006576D01*
X0133430Y0006555D01*
X0133237Y0006539D01*
X0133045Y0006527D01*
X0132852Y0006520D01*
X0132659Y0006518D01*
X0138804Y0019640D02*
X0138677Y0019788D01*
X0138547Y0019933D01*
X0138414Y0020074D01*
X0138277Y0020213D01*
X0138137Y0020348D01*
X0137993Y0020479D01*
X0137846Y0020607D01*
X0137697Y0020732D01*
X0137544Y0020853D01*
X0137389Y0020970D01*
X0137230Y0021083D01*
X0137069Y0021192D01*
X0136905Y0021297D01*
X0136739Y0021399D01*
X0136570Y0021496D01*
X0136400Y0021589D01*
X0136226Y0021678D01*
X0136051Y0021763D01*
X0135874Y0021843D01*
X0135695Y0021919D01*
X0135514Y0021991D01*
X0135331Y0022058D01*
X0135147Y0022121D01*
X0134961Y0022179D01*
X0134774Y0022233D01*
X0134586Y0022282D01*
X0134396Y0022327D01*
X0134206Y0022367D01*
X0134014Y0022402D01*
X0133822Y0022433D01*
X0133629Y0022459D01*
X0133435Y0022480D01*
X0133241Y0022497D01*
X0133047Y0022509D01*
X0132853Y0022516D01*
X0132658Y0022518D01*
D71*
X0143956Y0017569D02*
X0143956Y0014566D01*
X0144707Y0013816D01*
X0146208Y0013816D01*
X0146959Y0014566D01*
X0146959Y0016068D01*
X0145458Y0016068D01*
X0146959Y0017569D02*
X0146208Y0018320D01*
X0144707Y0018320D01*
X0143956Y0017569D01*
X0148560Y0018320D02*
X0148560Y0013816D01*
X0148560Y0015317D02*
X0150812Y0015317D01*
X0151563Y0016068D01*
X0151563Y0017569D01*
X0150812Y0018320D01*
X0148560Y0018320D01*
X0150062Y0015317D02*
X0151563Y0013816D01*
X0153164Y0013816D02*
X0156167Y0013816D01*
X0157768Y0013816D02*
X0160771Y0013816D01*
X0162372Y0013816D02*
X0162372Y0018320D01*
X0165375Y0013816D01*
X0165375Y0018320D01*
X0164056Y0022753D02*
X0162555Y0022753D01*
X0161804Y0023503D01*
X0163306Y0025005D02*
X0164056Y0025005D01*
X0164807Y0024254D01*
X0164807Y0023503D01*
X0164056Y0022753D01*
X0164056Y0025005D02*
X0164807Y0025755D01*
X0164807Y0026506D01*
X0164056Y0027257D01*
X0162555Y0027257D01*
X0161804Y0026506D01*
X0159637Y0026732D02*
X0159637Y0025981D01*
X0156634Y0022979D01*
X0159637Y0022979D01*
X0159637Y0026732D02*
X0158886Y0027483D01*
X0157385Y0027483D01*
X0156634Y0026732D01*
X0155033Y0026732D02*
X0155033Y0025231D01*
X0154282Y0024480D01*
X0152030Y0024480D01*
X0152030Y0022979D02*
X0152030Y0027483D01*
X0154282Y0027483D01*
X0155033Y0026732D01*
X0153532Y0024480D02*
X0155033Y0022979D01*
X0156167Y0018320D02*
X0153164Y0018320D01*
X0153164Y0013816D01*
X0153164Y0016068D02*
X0154666Y0016068D01*
X0157768Y0016068D02*
X0159270Y0016068D01*
X0157768Y0018320D02*
X0157768Y0013816D01*
X0157768Y0018320D02*
X0160771Y0018320D01*
X0166408Y0023503D02*
X0167159Y0022753D01*
X0168660Y0022753D01*
X0169411Y0023503D01*
X0169411Y0024254D01*
X0168660Y0025005D01*
X0167910Y0025005D01*
X0168660Y0025005D02*
X0169411Y0025755D01*
X0169411Y0026506D01*
X0168660Y0027257D01*
X0167159Y0027257D01*
X0166408Y0026506D01*
X0171012Y0026506D02*
X0171012Y0023503D01*
X0174015Y0026506D01*
X0174015Y0023503D01*
X0173264Y0022753D01*
X0171763Y0022753D01*
X0171012Y0023503D01*
X0171012Y0026506D02*
X0171763Y0027257D01*
X0173264Y0027257D01*
X0174015Y0026506D01*
X0189408Y0063315D02*
X0189408Y0063949D01*
X0189408Y0063632D02*
X0190993Y0063632D01*
X0191310Y0063315D01*
X0191310Y0062998D01*
X0190993Y0062681D01*
X0190993Y0064891D02*
X0191310Y0065208D01*
X0191310Y0065842D01*
X0190993Y0066159D01*
X0190676Y0066159D01*
X0190359Y0065842D01*
X0190359Y0065525D01*
X0190359Y0065842D02*
X0190042Y0066159D01*
X0189725Y0066159D01*
X0189408Y0065842D01*
X0189408Y0065208D01*
X0189725Y0064891D01*
X0160081Y0095363D02*
X0158579Y0095363D01*
X0156978Y0096114D02*
X0156978Y0093111D01*
X0154726Y0093111D01*
X0153975Y0093862D01*
X0153975Y0096114D01*
X0152374Y0096864D02*
X0152374Y0093862D01*
X0151623Y0093111D01*
X0150122Y0093111D01*
X0149371Y0093862D01*
X0152374Y0096864D01*
X0151623Y0097615D01*
X0150122Y0097615D01*
X0149371Y0096864D01*
X0149371Y0093862D01*
X0147770Y0093111D02*
X0144767Y0093111D01*
X0143448Y0093314D02*
X0142697Y0092563D01*
X0141196Y0092563D01*
X0140445Y0093314D01*
X0140445Y0094815D02*
X0141947Y0095566D01*
X0142697Y0095566D01*
X0143448Y0094815D01*
X0143448Y0093314D01*
X0146269Y0093111D02*
X0146269Y0097615D01*
X0144767Y0096114D01*
X0143448Y0097067D02*
X0140445Y0097067D01*
X0140445Y0094815D01*
X0138844Y0096316D02*
X0138093Y0097067D01*
X0136592Y0097067D01*
X0135841Y0096316D01*
X0135841Y0093314D01*
X0136592Y0092563D01*
X0138093Y0092563D01*
X0138844Y0093314D01*
X0158579Y0093111D02*
X0158579Y0097615D01*
X0161582Y0097615D01*
X0146839Y0135333D02*
X0143836Y0135333D01*
X0143086Y0136084D01*
X0143086Y0137585D01*
X0143836Y0138336D01*
X0146839Y0135333D01*
X0147590Y0136084D01*
X0147590Y0137585D01*
X0146839Y0138336D01*
X0143836Y0138336D01*
X0140967Y0139720D02*
X0140967Y0141221D01*
X0140217Y0141972D01*
X0140967Y0143573D02*
X0140967Y0146576D01*
X0140967Y0145075D02*
X0136464Y0145075D01*
X0137965Y0143573D01*
X0137214Y0141972D02*
X0136464Y0141221D01*
X0136464Y0139720D01*
X0137214Y0138969D01*
X0140217Y0138969D01*
X0140967Y0139720D01*
X0144587Y0142239D02*
X0143086Y0143741D01*
X0147590Y0143741D01*
X0147590Y0145242D02*
X0147590Y0142239D01*
X0147590Y0140688D02*
X0147590Y0139937D01*
X0146839Y0139937D01*
X0146839Y0140688D01*
X0147590Y0140688D01*
X0146839Y0146843D02*
X0144587Y0146843D01*
X0146839Y0146843D02*
X0147590Y0147594D01*
X0147590Y0149846D01*
X0144587Y0149846D01*
X0145338Y0151447D02*
X0145338Y0152948D01*
X0147590Y0151447D02*
X0143086Y0151447D01*
X0143086Y0154450D01*
X0148596Y0166051D02*
X0147845Y0166802D01*
X0150848Y0169804D01*
X0150848Y0166802D01*
X0150097Y0166051D01*
X0148596Y0166051D01*
X0147845Y0166802D02*
X0147845Y0169804D01*
X0148596Y0170555D01*
X0150097Y0170555D01*
X0150848Y0169804D01*
X0152533Y0171240D02*
X0151782Y0171991D01*
X0151782Y0174993D01*
X0152533Y0175744D01*
X0154034Y0175744D01*
X0154785Y0174993D01*
X0156386Y0173492D02*
X0159389Y0173492D01*
X0158638Y0171240D02*
X0158638Y0175744D01*
X0156386Y0173492D01*
X0154785Y0171991D02*
X0154034Y0171240D01*
X0152533Y0171240D01*
X0154751Y0169054D02*
X0156253Y0170555D01*
X0156253Y0166051D01*
X0157754Y0166051D02*
X0154751Y0166051D01*
X0153200Y0166051D02*
X0152449Y0166051D01*
X0152449Y0166802D01*
X0153200Y0166802D01*
X0153200Y0166051D01*
X0159355Y0166802D02*
X0160106Y0166051D01*
X0162358Y0166051D01*
X0162358Y0169054D01*
X0163959Y0168303D02*
X0165460Y0168303D01*
X0163959Y0166051D02*
X0163959Y0170555D01*
X0166962Y0170555D01*
X0166523Y0174488D02*
X0169525Y0174488D01*
X0168024Y0174488D02*
X0168024Y0178992D01*
X0166523Y0177491D01*
X0171127Y0178241D02*
X0171127Y0175239D01*
X0174129Y0178241D01*
X0174129Y0175239D01*
X0173378Y0174488D01*
X0171877Y0174488D01*
X0171127Y0175239D01*
X0171127Y0178241D02*
X0171877Y0178992D01*
X0173378Y0178992D01*
X0174129Y0178241D01*
X0175730Y0177491D02*
X0175730Y0175239D01*
X0176481Y0174488D01*
X0178733Y0174488D01*
X0178733Y0177491D01*
X0180334Y0176740D02*
X0181836Y0176740D01*
X0180334Y0178992D02*
X0183337Y0178992D01*
X0180334Y0178992D02*
X0180334Y0174488D01*
X0196467Y0165933D02*
X0196467Y0163681D01*
X0200971Y0163681D01*
X0200971Y0165933D01*
X0200220Y0166684D01*
X0197217Y0166684D01*
X0196467Y0165933D01*
X0196467Y0162080D02*
X0196467Y0159077D01*
X0200971Y0159077D01*
X0200971Y0162080D01*
X0198719Y0160578D02*
X0198719Y0159077D01*
X0198719Y0157476D02*
X0197217Y0157476D01*
X0196467Y0156725D01*
X0196467Y0154473D01*
X0200971Y0154473D01*
X0199469Y0154473D02*
X0199469Y0156725D01*
X0198719Y0157476D01*
X0199469Y0155975D02*
X0200971Y0157476D01*
X0182203Y0152123D02*
X0182203Y0149121D01*
X0181452Y0148370D01*
X0179951Y0148370D01*
X0179201Y0149121D01*
X0182203Y0152123D01*
X0181452Y0152874D01*
X0179951Y0152874D01*
X0179201Y0152123D01*
X0179201Y0149121D01*
X0177599Y0149121D02*
X0176849Y0148370D01*
X0175347Y0148370D01*
X0174597Y0149121D01*
X0172995Y0149121D02*
X0172995Y0149871D01*
X0172245Y0150622D01*
X0171494Y0150622D01*
X0172245Y0150622D02*
X0172995Y0151373D01*
X0172995Y0152123D01*
X0172245Y0152874D01*
X0170743Y0152874D01*
X0169993Y0152123D01*
X0169993Y0149121D02*
X0170743Y0148370D01*
X0172245Y0148370D01*
X0172995Y0149121D01*
X0174597Y0152123D02*
X0175347Y0152874D01*
X0176849Y0152874D01*
X0177599Y0152123D01*
X0177599Y0151373D01*
X0176849Y0150622D01*
X0177599Y0149871D01*
X0177599Y0149121D01*
X0176849Y0150622D02*
X0176098Y0150622D01*
X0166625Y0148996D02*
X0163623Y0148996D01*
X0165124Y0148996D02*
X0165124Y0153500D01*
X0163623Y0151999D01*
X0162021Y0152749D02*
X0162021Y0151248D01*
X0161271Y0150497D01*
X0159019Y0150497D01*
X0159019Y0148996D02*
X0159019Y0153500D01*
X0161271Y0153500D01*
X0162021Y0152749D01*
X0160520Y0150497D02*
X0162021Y0148996D01*
X0159355Y0166802D02*
X0159355Y0169054D01*
X0154195Y0183295D02*
X0154195Y0187799D01*
X0157198Y0187799D01*
X0155697Y0185547D02*
X0154195Y0185547D01*
X0152594Y0186298D02*
X0152594Y0183295D01*
X0150342Y0183295D01*
X0149591Y0184046D01*
X0149591Y0186298D01*
X0147990Y0183295D02*
X0144988Y0183295D01*
X0146489Y0183295D02*
X0146489Y0187799D01*
X0144988Y0186298D01*
X0143436Y0184046D02*
X0143436Y0183295D01*
X0142686Y0183295D01*
X0142686Y0184046D01*
X0143436Y0184046D01*
X0141084Y0184046D02*
X0141084Y0187048D01*
X0138082Y0184046D01*
X0138832Y0183295D01*
X0140334Y0183295D01*
X0141084Y0184046D01*
X0141084Y0187048D02*
X0140334Y0187799D01*
X0138832Y0187799D01*
X0138082Y0187048D01*
X0138082Y0184046D01*
X0133775Y0191736D02*
X0130772Y0191736D01*
X0133775Y0194739D01*
X0133775Y0195489D01*
X0133024Y0196240D01*
X0131523Y0196240D01*
X0130772Y0195489D01*
X0129171Y0195489D02*
X0129171Y0192487D01*
X0128420Y0191736D01*
X0126919Y0191736D01*
X0126168Y0192487D01*
X0129171Y0195489D01*
X0128420Y0196240D01*
X0126919Y0196240D01*
X0126168Y0195489D01*
X0126168Y0192487D01*
X0124567Y0195489D02*
X0121564Y0192487D01*
X0121564Y0191736D01*
X0119963Y0191736D02*
X0116960Y0191736D01*
X0118462Y0191736D02*
X0118462Y0196240D01*
X0116960Y0194739D01*
X0115359Y0195489D02*
X0114608Y0196240D01*
X0112356Y0196240D01*
X0112356Y0191736D01*
X0112356Y0193237D02*
X0114608Y0193237D01*
X0115359Y0193988D01*
X0115359Y0195489D01*
X0110755Y0195489D02*
X0110004Y0196240D01*
X0108503Y0196240D01*
X0107752Y0195489D01*
X0107752Y0192487D01*
X0108503Y0191736D01*
X0110004Y0191736D01*
X0110755Y0192487D01*
X0106151Y0191736D02*
X0106151Y0196240D01*
X0104650Y0194739D01*
X0103149Y0196240D01*
X0103149Y0191736D01*
X0121564Y0196240D02*
X0124567Y0196240D01*
X0124567Y0195489D01*
X0153830Y0196174D02*
X0153830Y0193172D01*
X0154580Y0192421D01*
X0156082Y0192421D01*
X0156832Y0193172D01*
X0158434Y0193172D02*
X0159184Y0192421D01*
X0160686Y0192421D01*
X0161436Y0193172D01*
X0161436Y0193923D01*
X0160686Y0194673D01*
X0159935Y0194673D01*
X0160686Y0194673D02*
X0161436Y0195424D01*
X0161436Y0196174D01*
X0160686Y0196925D01*
X0159184Y0196925D01*
X0158434Y0196174D01*
X0156832Y0196174D02*
X0156082Y0196925D01*
X0154580Y0196925D01*
X0153830Y0196174D01*
X0185393Y0196041D02*
X0185393Y0193039D01*
X0186143Y0192288D01*
X0187645Y0192288D01*
X0188395Y0193039D01*
X0189997Y0193039D02*
X0189997Y0194540D01*
X0192249Y0194540D01*
X0192999Y0193789D01*
X0192999Y0193039D01*
X0192249Y0192288D01*
X0190747Y0192288D01*
X0189997Y0193039D01*
X0189997Y0194540D02*
X0191498Y0196041D01*
X0192999Y0196792D01*
X0188395Y0196041D02*
X0187645Y0196792D01*
X0186143Y0196792D01*
X0185393Y0196041D01*
X0121178Y0145925D02*
X0118175Y0145925D01*
X0119677Y0145925D02*
X0119677Y0150429D01*
X0118175Y0148928D01*
X0116574Y0149678D02*
X0115823Y0150429D01*
X0114322Y0150429D01*
X0113571Y0149678D01*
X0113571Y0148928D01*
X0114322Y0148177D01*
X0115823Y0148177D01*
X0116574Y0147426D01*
X0116574Y0146676D01*
X0115823Y0145925D01*
X0114322Y0145925D01*
X0113571Y0146676D01*
X0111970Y0146676D02*
X0111970Y0150429D01*
X0108967Y0150429D02*
X0108967Y0146676D01*
X0109718Y0145925D01*
X0111219Y0145925D01*
X0111970Y0146676D01*
X0115073Y0145175D02*
X0115073Y0151180D01*
X0113843Y0130446D02*
X0114593Y0129695D01*
X0114593Y0127443D01*
X0110090Y0127443D01*
X0110090Y0129695D01*
X0110840Y0130446D01*
X0111591Y0130446D01*
X0112342Y0129695D01*
X0112342Y0127443D01*
X0113092Y0125842D02*
X0113843Y0125842D01*
X0114593Y0125091D01*
X0114593Y0123590D01*
X0113843Y0122839D01*
X0113092Y0122839D01*
X0112342Y0123590D01*
X0112342Y0125091D01*
X0113092Y0125842D01*
X0112342Y0125091D02*
X0111591Y0125842D01*
X0110840Y0125842D01*
X0110090Y0125091D01*
X0110090Y0123590D01*
X0110840Y0122839D01*
X0111591Y0122839D01*
X0112342Y0123590D01*
X0111591Y0121238D02*
X0110840Y0121238D01*
X0110090Y0120487D01*
X0110090Y0118986D01*
X0110840Y0118235D01*
X0111591Y0121238D02*
X0114593Y0118235D01*
X0114593Y0121238D01*
X0114593Y0116634D02*
X0114593Y0113631D01*
X0114593Y0115133D02*
X0110090Y0115133D01*
X0111591Y0113631D01*
X0110840Y0112030D02*
X0110090Y0111279D01*
X0110090Y0109778D01*
X0110840Y0109027D01*
X0113843Y0109027D01*
X0110840Y0112030D01*
X0113843Y0112030D01*
X0114593Y0111279D01*
X0114593Y0109778D01*
X0113843Y0109027D01*
X0113843Y0107426D02*
X0114593Y0106675D01*
X0114593Y0105174D01*
X0113843Y0104424D01*
X0112342Y0104424D02*
X0111591Y0105925D01*
X0111591Y0106675D01*
X0112342Y0107426D01*
X0113843Y0107426D01*
X0112342Y0104424D02*
X0110090Y0104424D01*
X0110090Y0107426D01*
X0110840Y0102822D02*
X0110090Y0102072D01*
X0110090Y0100570D01*
X0110840Y0099820D01*
X0110090Y0098218D02*
X0114593Y0095216D01*
X0114593Y0093614D02*
X0110090Y0093614D01*
X0111591Y0092113D01*
X0110090Y0090612D01*
X0114593Y0090612D01*
X0114593Y0089010D02*
X0114593Y0086008D01*
X0111591Y0089010D01*
X0110840Y0089010D01*
X0110090Y0088260D01*
X0110090Y0086759D01*
X0110840Y0086008D01*
X0110840Y0084406D02*
X0110090Y0083656D01*
X0110090Y0082155D01*
X0110840Y0081404D01*
X0110840Y0079803D02*
X0110090Y0079052D01*
X0110090Y0077551D01*
X0110840Y0076800D01*
X0113843Y0076800D01*
X0114593Y0077551D01*
X0114593Y0079052D01*
X0113843Y0079803D01*
X0113843Y0081404D02*
X0114593Y0082155D01*
X0114593Y0083656D01*
X0113843Y0084406D01*
X0113092Y0084406D01*
X0112342Y0083656D01*
X0112342Y0082905D01*
X0112342Y0083656D02*
X0111591Y0084406D01*
X0110840Y0084406D01*
X0110090Y0075232D02*
X0110090Y0073731D01*
X0110090Y0074481D02*
X0114593Y0074481D01*
X0114593Y0073731D02*
X0114593Y0075232D01*
X0112342Y0072129D02*
X0110840Y0072129D01*
X0110090Y0071379D01*
X0110090Y0069127D01*
X0114593Y0069127D01*
X0113092Y0069127D02*
X0113092Y0071379D01*
X0112342Y0072129D01*
X0110090Y0095216D02*
X0114593Y0098218D01*
X0114593Y0099820D02*
X0111591Y0102822D01*
X0110840Y0102822D01*
X0114593Y0102822D02*
X0114593Y0099820D01*
X0112342Y0129695D02*
X0113092Y0130446D01*
X0113843Y0130446D01*
X0084225Y0067817D02*
X0084542Y0067500D01*
X0084542Y0066867D01*
X0084225Y0066550D01*
X0082958Y0066550D01*
X0082641Y0066867D01*
X0082641Y0067500D01*
X0082958Y0067817D01*
X0082958Y0065608D02*
X0082641Y0065291D01*
X0082641Y0064657D01*
X0082958Y0064340D01*
X0083275Y0064340D01*
X0083591Y0064657D01*
X0083591Y0065291D01*
X0083908Y0065608D01*
X0084225Y0065608D01*
X0084542Y0065291D01*
X0084542Y0064657D01*
X0084225Y0064340D01*
X0084225Y0063398D02*
X0082958Y0063398D01*
X0082641Y0063081D01*
X0082641Y0062447D01*
X0082958Y0062130D01*
X0084225Y0062130D01*
X0084542Y0062447D01*
X0084542Y0063081D01*
X0084225Y0063398D01*
X0071359Y0064974D02*
X0068824Y0064974D01*
X0069141Y0065291D02*
X0069458Y0065608D01*
X0069141Y0065291D02*
X0069141Y0064657D01*
X0069458Y0064340D01*
X0069775Y0064340D01*
X0070091Y0064657D01*
X0070091Y0065291D01*
X0070408Y0065608D01*
X0070725Y0065608D01*
X0071042Y0065291D01*
X0071042Y0064657D01*
X0070725Y0064340D01*
X0070725Y0063398D02*
X0069141Y0063398D01*
X0069141Y0062130D02*
X0070725Y0062130D01*
X0071042Y0062447D01*
X0071042Y0063081D01*
X0070725Y0063398D01*
X0070725Y0066550D02*
X0071042Y0066550D01*
X0070725Y0066550D02*
X0069458Y0067817D01*
X0069141Y0067817D01*
X0069141Y0066550D01*
X0070886Y0056970D02*
X0068634Y0054718D01*
X0069385Y0053968D02*
X0066383Y0056970D01*
X0066383Y0053968D02*
X0070886Y0053968D01*
X0070136Y0052366D02*
X0070886Y0051616D01*
X0070886Y0050114D01*
X0070136Y0049364D01*
X0067133Y0052366D01*
X0070136Y0052366D01*
X0070136Y0049364D02*
X0067133Y0049364D01*
X0066383Y0050114D01*
X0066383Y0051616D01*
X0067133Y0052366D01*
X0070886Y0047762D02*
X0070886Y0044760D01*
X0070886Y0046261D02*
X0066383Y0046261D01*
X0067884Y0044760D01*
X0068058Y0042292D02*
X0068808Y0041542D01*
X0069559Y0042292D01*
X0070310Y0042292D01*
X0071060Y0041542D01*
X0071060Y0040040D01*
X0070310Y0039290D01*
X0071060Y0037688D02*
X0069559Y0036187D01*
X0069559Y0036938D02*
X0069559Y0034686D01*
X0071060Y0034686D02*
X0066557Y0034686D01*
X0066557Y0036938D01*
X0067307Y0037688D01*
X0068808Y0037688D01*
X0069559Y0036938D01*
X0067307Y0039290D02*
X0066557Y0040040D01*
X0066557Y0041542D01*
X0067307Y0042292D01*
X0068058Y0042292D01*
X0068808Y0041542D02*
X0068808Y0040791D01*
X0074838Y0028902D02*
X0074838Y0027317D01*
X0075154Y0027000D01*
X0075788Y0027000D01*
X0076105Y0027317D01*
X0076105Y0028902D01*
X0077047Y0028585D02*
X0077364Y0028902D01*
X0077998Y0028902D01*
X0078315Y0028585D01*
X0077998Y0027951D02*
X0077364Y0027951D01*
X0077047Y0028268D01*
X0077047Y0028585D01*
X0077681Y0029219D02*
X0077681Y0026683D01*
X0077364Y0027000D02*
X0077998Y0027000D01*
X0078315Y0027317D01*
X0078315Y0027634D01*
X0077998Y0027951D01*
X0077047Y0027317D02*
X0077364Y0027000D01*
X0077047Y0025402D02*
X0077047Y0023500D01*
X0078315Y0023500D01*
X0079257Y0023817D02*
X0079574Y0023500D01*
X0080208Y0023500D01*
X0080525Y0023817D01*
X0080525Y0024134D01*
X0080208Y0024451D01*
X0079574Y0024451D01*
X0079257Y0024768D01*
X0079257Y0025085D01*
X0079574Y0025402D01*
X0080208Y0025402D01*
X0080525Y0025085D01*
X0081467Y0025402D02*
X0081467Y0023500D01*
X0082735Y0023500D01*
X0082101Y0024451D02*
X0081467Y0024451D01*
X0081467Y0025402D02*
X0082735Y0025402D01*
X0083677Y0025402D02*
X0084945Y0025402D01*
X0084311Y0025402D02*
X0084311Y0023500D01*
X0086616Y0023111D02*
X0086616Y0021610D01*
X0087366Y0020859D01*
X0090369Y0020859D01*
X0091119Y0021610D01*
X0091119Y0023111D01*
X0090369Y0023862D01*
X0091119Y0025463D02*
X0088117Y0028466D01*
X0087366Y0028466D01*
X0086616Y0027715D01*
X0086616Y0026214D01*
X0087366Y0025463D01*
X0087366Y0023862D02*
X0086616Y0023111D01*
X0089588Y0021250D02*
X0109588Y0021250D01*
X0114588Y0016250D01*
X0114588Y0006250D01*
X0109588Y0001250D01*
X0089588Y0001250D01*
X0084588Y0006250D01*
X0084588Y0016250D01*
X0089588Y0021250D01*
X0091119Y0025463D02*
X0091119Y0028466D01*
X0089117Y0029934D02*
X0089867Y0030685D01*
X0089867Y0032186D01*
X0089117Y0032937D01*
X0086114Y0032937D01*
X0089117Y0029934D01*
X0086114Y0029934D01*
X0085364Y0030685D01*
X0085364Y0032186D01*
X0086114Y0032937D01*
X0089117Y0034538D02*
X0089117Y0035289D01*
X0089867Y0035289D01*
X0089867Y0034538D01*
X0089117Y0034538D01*
X0089867Y0036840D02*
X0089867Y0039843D01*
X0089867Y0038341D02*
X0085364Y0038341D01*
X0086865Y0036840D01*
X0086865Y0041444D02*
X0089117Y0041444D01*
X0089867Y0042195D01*
X0089867Y0044447D01*
X0086865Y0044447D01*
X0087616Y0046048D02*
X0087616Y0047549D01*
X0089867Y0046048D02*
X0085364Y0046048D01*
X0085364Y0049051D01*
X0080208Y0028902D02*
X0079257Y0027951D01*
X0080525Y0027951D01*
X0080208Y0027000D02*
X0080208Y0028902D01*
X0078315Y0025402D02*
X0077047Y0025402D01*
X0077047Y0024451D02*
X0077681Y0024451D01*
X0076105Y0024451D02*
X0075788Y0024134D01*
X0074838Y0024134D01*
X0075471Y0024134D02*
X0076105Y0023500D01*
X0076105Y0024451D02*
X0076105Y0025085D01*
X0075788Y0025402D01*
X0074838Y0025402D01*
X0074838Y0023500D01*
X0074981Y0022943D02*
X0079981Y0017943D01*
X0079981Y0007943D01*
X0074981Y0002943D01*
X0054981Y0002943D01*
X0049981Y0007943D01*
X0049981Y0017943D01*
X0054981Y0022943D01*
X0074981Y0022943D01*
X0069981Y0012943D02*
X0064981Y0017943D01*
X0064981Y0012943D02*
X0059981Y0012943D01*
X0048129Y0025193D02*
X0047495Y0025827D01*
X0047812Y0025827D02*
X0046861Y0025827D01*
X0046861Y0025193D02*
X0046861Y0027095D01*
X0047812Y0027095D01*
X0048129Y0026778D01*
X0048129Y0026144D01*
X0047812Y0025827D01*
X0045919Y0025193D02*
X0044651Y0025193D01*
X0044651Y0027095D01*
X0045919Y0027095D01*
X0045285Y0026144D02*
X0044651Y0026144D01*
X0043709Y0025827D02*
X0043709Y0025510D01*
X0043392Y0025193D01*
X0042758Y0025193D01*
X0042441Y0025510D01*
X0042758Y0026144D02*
X0043392Y0026144D01*
X0043709Y0025827D01*
X0043709Y0026778D02*
X0043392Y0027095D01*
X0042758Y0027095D01*
X0042441Y0026778D01*
X0042441Y0026461D01*
X0042758Y0026144D01*
X0041499Y0025510D02*
X0041499Y0027095D01*
X0040231Y0027095D02*
X0040231Y0025510D01*
X0040548Y0025193D01*
X0041182Y0025193D01*
X0041499Y0025510D01*
X0041182Y0028693D02*
X0040548Y0028693D01*
X0040231Y0029010D01*
X0040231Y0030595D01*
X0041499Y0030595D02*
X0041499Y0029010D01*
X0041182Y0028693D01*
X0042441Y0029010D02*
X0042758Y0028693D01*
X0043392Y0028693D01*
X0043709Y0029010D01*
X0043709Y0029327D01*
X0043392Y0029644D01*
X0042758Y0029644D01*
X0042441Y0029961D01*
X0042441Y0030278D01*
X0042758Y0030595D01*
X0043392Y0030595D01*
X0043709Y0030278D01*
X0043075Y0030911D02*
X0043075Y0028376D01*
X0044651Y0029010D02*
X0044968Y0028693D01*
X0045602Y0028693D01*
X0045919Y0029010D01*
X0045919Y0029644D01*
X0045602Y0029961D01*
X0045285Y0029961D01*
X0044651Y0029644D01*
X0044651Y0030595D01*
X0045919Y0030595D01*
X0045282Y0036823D02*
X0040779Y0036823D01*
X0040779Y0039075D01*
X0041529Y0039825D01*
X0043031Y0039825D01*
X0043781Y0039075D01*
X0043781Y0036823D01*
X0043781Y0038324D02*
X0045282Y0039825D01*
X0043031Y0041427D02*
X0043031Y0044429D01*
X0045282Y0043679D02*
X0040779Y0043679D01*
X0043031Y0041427D01*
X0041906Y0047797D02*
X0040405Y0049298D01*
X0044908Y0049298D01*
X0044908Y0047797D02*
X0044908Y0050799D01*
X0044158Y0052401D02*
X0044908Y0053151D01*
X0044908Y0054653D01*
X0044158Y0055403D01*
X0041155Y0055403D01*
X0044158Y0052401D01*
X0041155Y0052401D01*
X0040405Y0053151D01*
X0040405Y0054653D01*
X0041155Y0055403D01*
X0040405Y0057005D02*
X0044908Y0057005D01*
X0043407Y0057005D02*
X0040405Y0060007D01*
X0042656Y0057755D02*
X0044908Y0060007D01*
X0021792Y0059760D02*
X0020420Y0059760D01*
X0019922Y0059261D02*
X0021792Y0059261D01*
X0021792Y0058763D02*
X0019423Y0058763D01*
X0018925Y0058264D02*
X0021792Y0058264D01*
X0021792Y0057766D02*
X0018426Y0057766D01*
X0017928Y0057267D02*
X0021792Y0057267D01*
X0021792Y0056769D02*
X0017429Y0056769D01*
X0016931Y0056270D02*
X0021792Y0056270D01*
X0021792Y0055772D02*
X0017152Y0055772D01*
X0016792Y0056132D02*
X0021792Y0061132D01*
X0021792Y0051132D01*
X0016792Y0056132D01*
X0017651Y0055273D02*
X0021792Y0055273D01*
X0021792Y0054775D02*
X0018149Y0054775D01*
X0018648Y0054276D02*
X0021792Y0054276D01*
X0021792Y0053778D02*
X0019146Y0053778D01*
X0019645Y0053279D02*
X0021792Y0053279D01*
X0021792Y0052781D02*
X0020143Y0052781D01*
X0020642Y0052282D02*
X0021792Y0052282D01*
X0021792Y0051784D02*
X0021140Y0051784D01*
X0021639Y0051285D02*
X0021792Y0051285D01*
X0021792Y0060258D02*
X0020919Y0060258D01*
X0021417Y0060757D02*
X0021792Y0060757D01*
X0004310Y0062998D02*
X0004310Y0063315D01*
X0003993Y0063632D01*
X0002408Y0063632D01*
X0002408Y0063315D02*
X0002408Y0063949D01*
X0002725Y0064891D02*
X0002408Y0065208D01*
X0002408Y0065842D01*
X0002725Y0066159D01*
X0003042Y0066159D01*
X0004310Y0064891D01*
X0004310Y0066159D01*
X0004310Y0062998D02*
X0003993Y0062681D01*
X0019358Y0025440D02*
X0019675Y0025440D01*
X0019991Y0025123D01*
X0020308Y0025440D01*
X0020625Y0025440D01*
X0020942Y0025123D01*
X0020942Y0024489D01*
X0020625Y0024172D01*
X0019991Y0024806D02*
X0019991Y0025123D01*
X0019358Y0025440D02*
X0019041Y0025123D01*
X0019041Y0024489D01*
X0019358Y0024172D01*
X0019041Y0023230D02*
X0019041Y0021962D01*
X0019041Y0022596D02*
X0020942Y0022596D01*
X0022224Y0022596D02*
X0024759Y0022596D01*
X0024442Y0022913D02*
X0024125Y0023230D01*
X0023808Y0023230D01*
X0023491Y0022913D01*
X0023491Y0022279D01*
X0023175Y0021962D01*
X0022858Y0021962D01*
X0022541Y0022279D01*
X0022541Y0022913D01*
X0022858Y0023230D01*
X0023491Y0024172D02*
X0023491Y0025123D01*
X0023808Y0025440D01*
X0024125Y0025440D01*
X0024442Y0025123D01*
X0024442Y0024489D01*
X0024125Y0024172D01*
X0023491Y0024172D01*
X0022858Y0024806D01*
X0022541Y0025440D01*
X0024442Y0022913D02*
X0024442Y0022279D01*
X0024125Y0021962D01*
X0024125Y0021020D02*
X0022541Y0021020D01*
X0022541Y0019752D02*
X0024125Y0019752D01*
X0024442Y0020069D01*
X0024442Y0020703D01*
X0024125Y0021020D01*
X0020942Y0021123D02*
X0020942Y0020489D01*
X0020942Y0020806D02*
X0019041Y0020806D01*
X0019041Y0020489D02*
X0019041Y0021123D01*
X0019041Y0019547D02*
X0020308Y0018279D01*
X0019991Y0018596D02*
X0020942Y0019547D01*
X0020942Y0018279D02*
X0019041Y0018279D01*
X0019358Y0017337D02*
X0019041Y0017020D01*
X0019041Y0016386D01*
X0019358Y0016069D01*
X0020625Y0016069D01*
X0020942Y0016386D01*
X0020942Y0017020D01*
X0020625Y0017337D01*
X0020942Y0015230D02*
X0020942Y0014596D01*
X0020942Y0014913D02*
X0019041Y0014913D01*
X0019041Y0014596D02*
X0019041Y0015230D01*
X0019358Y0013654D02*
X0019991Y0013654D01*
X0020308Y0013337D01*
X0020308Y0012386D01*
X0020942Y0012386D02*
X0019041Y0012386D01*
X0019041Y0013337D01*
X0019358Y0013654D01*
X0094588Y0011250D02*
X0099588Y0011250D01*
X0104588Y0011250D02*
X0099588Y0016250D01*
D72*
X0048012Y0154324D02*
X0044943Y0154324D01*
X0046477Y0154324D02*
X0046477Y0158928D01*
X0044943Y0157393D01*
X0043408Y0158928D02*
X0041873Y0158928D01*
X0042641Y0158928D02*
X0042641Y0155091D01*
X0041873Y0154324D01*
X0041106Y0154324D01*
X0040339Y0155091D01*
X0073173Y0170013D02*
X0073941Y0169245D01*
X0075475Y0169245D01*
X0076243Y0170013D01*
X0076243Y0170780D01*
X0075475Y0171547D01*
X0073941Y0171547D01*
X0073173Y0172315D01*
X0073173Y0173082D01*
X0073941Y0173849D01*
X0075475Y0173849D01*
X0076243Y0173082D01*
X0077777Y0173849D02*
X0077777Y0169245D01*
X0080847Y0169245D01*
X0082381Y0169245D02*
X0083916Y0169245D01*
X0083149Y0169245D02*
X0083149Y0173849D01*
X0083916Y0173849D02*
X0082381Y0173849D01*
X0085451Y0173849D02*
X0087752Y0173849D01*
X0088520Y0173082D01*
X0088520Y0170013D01*
X0087752Y0169245D01*
X0085451Y0169245D01*
X0085451Y0173849D01*
X0090054Y0173849D02*
X0090054Y0169245D01*
X0093124Y0169245D01*
X0091589Y0171547D02*
X0090054Y0171547D01*
X0090054Y0173849D02*
X0093124Y0173849D01*
D73*
X0156569Y0158494D03*
X0184969Y0158494D03*
X0173780Y0032477D03*
X0145380Y0032477D03*
D74*
X0061162Y0034373D03*
X0050532Y0034373D03*
X0050532Y0062773D03*
X0061162Y0062773D03*
D75*
X0063603Y0176014D02*
X0097462Y0176014D01*
X0097462Y0192943D01*
X0063603Y0192943D01*
X0063603Y0176014D01*
X0080532Y0192352D02*
X0080532Y0200226D01*
X0088406Y0200226D01*
X0088406Y0192352D01*
D76*
X0079292Y0091880D02*
X0074292Y0091880D01*
X0071792Y0089380D01*
X0071792Y0084380D01*
X0071792Y0079380D01*
X0071792Y0074380D01*
X0071792Y0069380D01*
X0071792Y0064380D01*
X0074292Y0061880D01*
X0079292Y0061880D01*
X0081792Y0064380D01*
X0081792Y0069380D01*
X0081792Y0074380D01*
X0081792Y0079380D01*
X0081792Y0084380D01*
X0081792Y0089380D01*
X0079292Y0091880D01*
M02*
