%
M48
M72
T01C0.01969
T02C0.03150
T03C0.03200
T04C0.03937
T05C0.04000
T06C0.07480
%
T01
X28682Y26053
X36556Y18179
X44430Y22116
X24745Y37864
X52304Y45738
X60178Y49675
X71989Y57549
X48367Y77234
X68052Y85108
X87737Y96919
X87737Y114047
X107422Y89045
X115296Y96919
X115296Y112667
X115296Y155974
X107422Y168338
X119233Y175659
X75926Y159911
X40493Y128415
X36556Y136289
X48367Y112667
X15126Y163848
X115296Y53612
X119233Y41801
X103485Y26053
X127107Y22116
X182225Y112667
T02
X31084Y167313
X34233Y162589
X37383Y167313
X40532Y162589
X27934Y162589
X72658Y184478
X80532Y184478
X88406Y184478
T03
X97343Y163297
X97343Y153297
X97343Y143297
X97343Y133297
X97343Y123297
X97343Y113297
X97343Y103297
X97343Y93297
X97343Y83297
X97343Y73297
X97343Y63297
X97343Y53297
X97343Y43297
X97343Y33297
X79469Y31565
X79469Y41565
X61162Y28573
X50532Y28573
X50532Y68573
X61162Y68573
X127343Y73297
X127343Y63297
X127343Y53297
X127343Y43297
X127343Y33297
X139580Y32477
X137658Y14518
X127658Y14518
X179580Y32477
X148091Y82313
X138091Y82313
X127343Y83297
X127343Y93297
X127343Y103297
X127343Y113297
X127343Y123297
X127343Y133297
X127343Y143297
X127343Y153297
X127343Y163297
X138091Y163612
X138091Y153612
X150769Y158494
X145847Y176801
X135847Y176801
X123958Y180738
X118958Y188238
X113958Y180738
X137895Y194045
X147895Y194045
X168958Y188612
X178958Y188612
X192147Y180935
X192147Y170935
X190769Y158494
T04
X64784Y184478
X96280Y184478
T05
X10060Y137431
X10060Y127431
X10060Y117431
X10060Y107431
X10060Y97431
X10060Y87431
X10060Y77431
X10060Y67431
X11792Y56132
X11792Y46132
X11792Y36132
X11792Y26132
X11792Y16132
X54981Y12943
X74981Y12943
X89588Y11250
X109588Y11250
X76792Y66880
X76792Y76880
X76792Y86880
X197060Y87431
X197060Y77431
X197060Y67431
X197060Y97431
X197060Y107431
X197060Y117431
X197060Y127431
X197060Y137431
T06
X19863Y182667
X48603Y182667
M30
