G75*
%MOIN*%
%OFA0B0*%
%FSLAX25Y25*%
%IPPOS*%
%LPD*%
%AMOC8*
5,1,8,0,0,1.08239X$1,22.5*
%
%ADD10C,0.00000*%
%ADD11OC8,0.05200*%
%ADD12C,0.06300*%
%ADD13OC8,0.06300*%
%ADD14C,0.05150*%
%ADD15C,0.11220*%
%ADD16C,0.07400*%
%ADD17C,0.05200*%
%ADD18C,0.05937*%
%ADD19C,0.01600*%
%ADD20C,0.03169*%
D10*
X0005060Y0002431D02*
X0005060Y0199281D01*
X0201910Y0199281D01*
X0201910Y0002431D01*
X0005060Y0002431D01*
D11*
X0050532Y0028573D03*
X0061162Y0028573D03*
X0079469Y0031565D03*
X0079469Y0041565D03*
X0061162Y0068573D03*
X0050532Y0068573D03*
X0127658Y0014518D03*
X0137658Y0014518D03*
X0139580Y0032477D03*
X0179580Y0032477D03*
X0138091Y0153612D03*
X0138091Y0163612D03*
X0150769Y0158494D03*
X0145847Y0176801D03*
X0135847Y0176801D03*
X0123958Y0180738D03*
X0118958Y0188238D03*
X0113958Y0180738D03*
X0137895Y0194045D03*
X0147895Y0194045D03*
X0190769Y0158494D03*
X0192147Y0170935D03*
X0192147Y0180935D03*
D12*
X0168958Y0188612D03*
X0138091Y0082313D03*
D13*
X0148091Y0082313D03*
X0178958Y0188612D03*
D14*
X0088406Y0184478D03*
X0080532Y0184478D03*
X0072658Y0184478D03*
X0040532Y0162589D03*
X0037383Y0167313D03*
X0034233Y0162589D03*
X0031084Y0167313D03*
X0027934Y0162589D03*
D15*
X0019863Y0182667D03*
X0048603Y0182667D03*
D16*
X0010060Y0137431D03*
X0010060Y0127431D03*
X0010060Y0117431D03*
X0010060Y0107431D03*
X0010060Y0097431D03*
X0010060Y0087431D03*
X0010060Y0077431D03*
X0010060Y0067431D03*
X0011792Y0056132D03*
X0011792Y0046132D03*
X0011792Y0036132D03*
X0011792Y0026132D03*
X0011792Y0016132D03*
X0054981Y0012943D03*
X0074981Y0012943D03*
X0089588Y0011250D03*
X0109588Y0011250D03*
X0076792Y0066880D03*
X0076792Y0076880D03*
X0076792Y0086880D03*
X0197060Y0087431D03*
X0197060Y0077431D03*
X0197060Y0067431D03*
X0197060Y0097431D03*
X0197060Y0107431D03*
X0197060Y0117431D03*
X0197060Y0127431D03*
X0197060Y0137431D03*
D17*
X0129943Y0133297D02*
X0124743Y0133297D01*
X0124743Y0123297D02*
X0129943Y0123297D01*
X0129943Y0113297D02*
X0124743Y0113297D01*
X0124743Y0103297D02*
X0129943Y0103297D01*
X0129943Y0093297D02*
X0124743Y0093297D01*
X0124743Y0083297D02*
X0129943Y0083297D01*
X0129943Y0073297D02*
X0124743Y0073297D01*
X0124743Y0063297D02*
X0129943Y0063297D01*
X0129943Y0053297D02*
X0124743Y0053297D01*
X0124743Y0043297D02*
X0129943Y0043297D01*
X0129943Y0033297D02*
X0124743Y0033297D01*
X0099943Y0033297D02*
X0094743Y0033297D01*
X0094743Y0043297D02*
X0099943Y0043297D01*
X0099943Y0053297D02*
X0094743Y0053297D01*
X0094743Y0063297D02*
X0099943Y0063297D01*
X0099943Y0073297D02*
X0094743Y0073297D01*
X0094743Y0083297D02*
X0099943Y0083297D01*
X0099943Y0093297D02*
X0094743Y0093297D01*
X0094743Y0103297D02*
X0099943Y0103297D01*
X0099943Y0113297D02*
X0094743Y0113297D01*
X0094743Y0123297D02*
X0099943Y0123297D01*
X0099943Y0133297D02*
X0094743Y0133297D01*
X0094743Y0143297D02*
X0099943Y0143297D01*
X0099943Y0153297D02*
X0094743Y0153297D01*
X0094743Y0163297D02*
X0099943Y0163297D01*
X0124743Y0163297D02*
X0129943Y0163297D01*
X0129943Y0153297D02*
X0124743Y0153297D01*
X0124743Y0143297D02*
X0129943Y0143297D01*
D18*
X0096280Y0184478D03*
X0064784Y0184478D03*
D19*
X0080532Y0184478D02*
X0058643Y0162589D01*
X0040532Y0162589D01*
X0016871Y0159911D02*
X0016871Y0058548D01*
X0017092Y0058327D01*
X0017092Y0045517D01*
X0024745Y0037864D01*
X0028682Y0026053D02*
X0028682Y0128415D01*
X0036556Y0136289D01*
X0040493Y0128415D02*
X0036556Y0124478D01*
X0036556Y0018179D01*
X0044430Y0022116D02*
X0044430Y0073297D01*
X0048367Y0077234D01*
X0048367Y0112667D01*
X0068052Y0085108D02*
X0068052Y0061486D01*
X0071989Y0057549D01*
X0060178Y0049675D02*
X0056241Y0053612D01*
X0056241Y0081171D01*
X0075926Y0100856D01*
X0075926Y0159911D01*
X0088406Y0184478D02*
X0088406Y0113337D01*
X0087737Y0112667D01*
X0087737Y0114047D01*
X0087737Y0096919D02*
X0087737Y0072904D01*
X0097343Y0063297D01*
X0104143Y0056497D01*
X0104143Y0031558D01*
X0103485Y0030899D01*
X0103485Y0026053D01*
X0115296Y0026880D02*
X0127658Y0014518D01*
X0127107Y0022116D02*
X0127343Y0022352D01*
X0127343Y0033297D01*
X0119233Y0041801D02*
X0119233Y0092982D01*
X0115296Y0096919D01*
X0119233Y0100856D02*
X0124903Y0100856D01*
X0127343Y0103297D01*
X0119233Y0100856D02*
X0119233Y0119281D01*
X0119233Y0120541D01*
X0119233Y0175659D01*
X0107422Y0168338D02*
X0107422Y0089045D01*
X0115296Y0112667D02*
X0115296Y0155974D01*
X0135847Y0165305D02*
X0135847Y0176801D01*
X0136025Y0188238D02*
X0137895Y0194045D01*
X0136025Y0188238D02*
X0118958Y0188238D01*
X0115788Y0191407D01*
X0095611Y0191407D01*
X0088682Y0184478D01*
X0088406Y0184478D01*
X0135847Y0165305D02*
X0138091Y0163612D01*
X0182225Y0112667D02*
X0182225Y0092266D01*
X0197060Y0077431D01*
X0190769Y0158494D02*
X0192147Y0163809D01*
X0192147Y0170935D01*
X0115296Y0053612D02*
X0115296Y0026880D01*
X0089588Y0011250D02*
X0072265Y0028573D01*
X0061162Y0028573D01*
X0060178Y0029557D01*
X0060178Y0049675D01*
X0052304Y0045738D02*
X0052304Y0066801D01*
X0050532Y0068573D01*
X0050532Y0028573D02*
X0050532Y0017392D01*
X0054981Y0012943D01*
X0016871Y0159911D02*
X0015126Y0161656D01*
X0015126Y0163848D01*
D20*
X0015126Y0163848D03*
X0036556Y0136289D03*
X0040493Y0128415D03*
X0048367Y0112667D03*
X0068052Y0085108D03*
X0048367Y0077234D03*
X0071989Y0057549D03*
X0060178Y0049675D03*
X0052304Y0045738D03*
X0028682Y0026053D03*
X0036556Y0018179D03*
X0044430Y0022116D03*
X0024745Y0037864D03*
X0087737Y0096919D03*
X0087737Y0114047D03*
X0107422Y0089045D03*
X0115296Y0096919D03*
X0115296Y0112667D03*
X0115296Y0155974D03*
X0107422Y0168338D03*
X0119233Y0175659D03*
X0075926Y0159911D03*
X0182225Y0112667D03*
X0115296Y0053612D03*
X0119233Y0041801D03*
X0103485Y0026053D03*
X0127107Y0022116D03*
M02*
