G75*
%MOIN*%
%OFA0B0*%
%FSLAX25Y25*%
%IPPOS*%
%LPD*%
%AMOC8*
5,1,8,0,0,1.08239X$1,22.5*
%
%ADD10C,0.00000*%
%ADD11C,0.00500*%
D10*
X0005060Y0002431D02*
X0005060Y0199281D01*
X0201910Y0199281D01*
X0201910Y0002431D01*
X0005060Y0002431D01*
D11*
X0019041Y0012386D02*
X0019041Y0013337D01*
X0019358Y0013654D01*
X0019991Y0013654D01*
X0020308Y0013337D01*
X0020308Y0012386D01*
X0020942Y0012386D02*
X0019041Y0012386D01*
X0019041Y0014596D02*
X0019041Y0015230D01*
X0019041Y0014913D02*
X0020942Y0014913D01*
X0020942Y0014596D02*
X0020942Y0015230D01*
X0020625Y0016069D02*
X0020942Y0016386D01*
X0020942Y0017020D01*
X0020625Y0017337D01*
X0020308Y0018279D02*
X0019041Y0019547D01*
X0019041Y0020489D02*
X0019041Y0021123D01*
X0019041Y0020806D02*
X0020942Y0020806D01*
X0020942Y0020489D02*
X0020942Y0021123D01*
X0020942Y0022596D02*
X0019041Y0022596D01*
X0019041Y0021962D02*
X0019041Y0023230D01*
X0019358Y0024172D02*
X0019041Y0024489D01*
X0019041Y0025123D01*
X0019358Y0025440D01*
X0019675Y0025440D01*
X0019991Y0025123D01*
X0020308Y0025440D01*
X0020625Y0025440D01*
X0020942Y0025123D01*
X0020942Y0024489D01*
X0020625Y0024172D01*
X0019991Y0024806D02*
X0019991Y0025123D01*
X0020942Y0019547D02*
X0019991Y0018596D01*
X0019041Y0018279D02*
X0020942Y0018279D01*
X0019358Y0017337D02*
X0019041Y0017020D01*
X0019041Y0016386D01*
X0019358Y0016069D01*
X0020625Y0016069D01*
X0040231Y0025510D02*
X0040548Y0025193D01*
X0041182Y0025193D01*
X0041499Y0025510D01*
X0041499Y0027095D01*
X0042441Y0026778D02*
X0042441Y0026461D01*
X0042758Y0026144D01*
X0043392Y0026144D01*
X0043709Y0025827D01*
X0043709Y0025510D01*
X0043392Y0025193D01*
X0042758Y0025193D01*
X0042441Y0025510D01*
X0042441Y0026778D02*
X0042758Y0027095D01*
X0043392Y0027095D01*
X0043709Y0026778D01*
X0044651Y0027095D02*
X0044651Y0025193D01*
X0045919Y0025193D01*
X0046861Y0025193D02*
X0046861Y0027095D01*
X0047812Y0027095D01*
X0048129Y0026778D01*
X0048129Y0026144D01*
X0047812Y0025827D01*
X0046861Y0025827D01*
X0047495Y0025827D02*
X0048129Y0025193D01*
X0045919Y0027095D02*
X0044651Y0027095D01*
X0044651Y0026144D02*
X0045285Y0026144D01*
X0040231Y0025510D02*
X0040231Y0027095D01*
X0041906Y0047797D02*
X0040405Y0049298D01*
X0044908Y0049298D01*
X0044908Y0047797D02*
X0044908Y0050799D01*
X0044158Y0052401D02*
X0044908Y0053151D01*
X0044908Y0054653D01*
X0044158Y0055403D01*
X0041155Y0055403D01*
X0044158Y0052401D01*
X0041155Y0052401D01*
X0040405Y0053151D01*
X0040405Y0054653D01*
X0041155Y0055403D01*
X0040405Y0057005D02*
X0044908Y0057005D01*
X0043407Y0057005D02*
X0040405Y0060007D01*
X0042656Y0057755D02*
X0044908Y0060007D01*
X0066383Y0056970D02*
X0069385Y0053968D01*
X0068634Y0054718D02*
X0070886Y0056970D01*
X0070886Y0053968D02*
X0066383Y0053968D01*
X0067133Y0052366D02*
X0070136Y0049364D01*
X0070886Y0050114D01*
X0070886Y0051616D01*
X0070136Y0052366D01*
X0067133Y0052366D01*
X0066383Y0051616D01*
X0066383Y0050114D01*
X0067133Y0049364D01*
X0070136Y0049364D01*
X0070886Y0047762D02*
X0070886Y0044760D01*
X0070886Y0046261D02*
X0066383Y0046261D01*
X0067884Y0044760D01*
X0085364Y0046048D02*
X0085364Y0049051D01*
X0087616Y0047549D02*
X0087616Y0046048D01*
X0086865Y0044447D02*
X0089867Y0044447D01*
X0089867Y0042195D01*
X0089117Y0041444D01*
X0086865Y0041444D01*
X0089867Y0039843D02*
X0089867Y0036840D01*
X0089867Y0038341D02*
X0085364Y0038341D01*
X0086865Y0036840D01*
X0089117Y0035289D02*
X0089867Y0035289D01*
X0089867Y0034538D01*
X0089117Y0034538D01*
X0089117Y0035289D01*
X0089117Y0032937D02*
X0086114Y0032937D01*
X0089117Y0029934D01*
X0089867Y0030685D01*
X0089867Y0032186D01*
X0089117Y0032937D01*
X0086114Y0032937D02*
X0085364Y0032186D01*
X0085364Y0030685D01*
X0086114Y0029934D01*
X0089117Y0029934D01*
X0084945Y0025402D02*
X0083677Y0025402D01*
X0084311Y0025402D02*
X0084311Y0023500D01*
X0082735Y0023500D02*
X0081467Y0023500D01*
X0081467Y0025402D01*
X0082735Y0025402D01*
X0082101Y0024451D02*
X0081467Y0024451D01*
X0080525Y0024134D02*
X0080208Y0024451D01*
X0079574Y0024451D01*
X0079257Y0024768D01*
X0079257Y0025085D01*
X0079574Y0025402D01*
X0080208Y0025402D01*
X0080525Y0025085D01*
X0080525Y0024134D02*
X0080525Y0023817D01*
X0080208Y0023500D01*
X0079574Y0023500D01*
X0079257Y0023817D01*
X0078315Y0023500D02*
X0077047Y0023500D01*
X0077047Y0025402D01*
X0078315Y0025402D01*
X0077681Y0024451D02*
X0077047Y0024451D01*
X0076105Y0024451D02*
X0075788Y0024134D01*
X0074838Y0024134D01*
X0075471Y0024134D02*
X0076105Y0023500D01*
X0076105Y0024451D02*
X0076105Y0025085D01*
X0075788Y0025402D01*
X0074838Y0025402D01*
X0074838Y0023500D01*
X0085364Y0046048D02*
X0089867Y0046048D01*
X0084225Y0062130D02*
X0082958Y0062130D01*
X0082641Y0062447D01*
X0082641Y0063081D01*
X0082958Y0063398D01*
X0084225Y0063398D01*
X0084542Y0063081D01*
X0084542Y0062447D01*
X0084225Y0062130D01*
X0084225Y0064340D02*
X0084542Y0064657D01*
X0084542Y0065291D01*
X0084225Y0065608D01*
X0083908Y0065608D01*
X0083591Y0065291D01*
X0083591Y0064657D01*
X0083275Y0064340D01*
X0082958Y0064340D01*
X0082641Y0064657D01*
X0082641Y0065291D01*
X0082958Y0065608D01*
X0082958Y0066550D02*
X0084225Y0066550D01*
X0084542Y0066867D01*
X0084542Y0067500D01*
X0084225Y0067817D01*
X0082958Y0067817D02*
X0082641Y0067500D01*
X0082641Y0066867D01*
X0082958Y0066550D01*
X0110090Y0069127D02*
X0110090Y0071379D01*
X0110840Y0072129D01*
X0112342Y0072129D01*
X0113092Y0071379D01*
X0113092Y0069127D01*
X0114593Y0069127D02*
X0110090Y0069127D01*
X0110090Y0073731D02*
X0110090Y0075232D01*
X0110090Y0074481D02*
X0114593Y0074481D01*
X0114593Y0073731D02*
X0114593Y0075232D01*
X0113843Y0076800D02*
X0114593Y0077551D01*
X0114593Y0079052D01*
X0113843Y0079803D01*
X0113843Y0081404D02*
X0114593Y0082155D01*
X0114593Y0083656D01*
X0113843Y0084406D01*
X0113092Y0084406D01*
X0112342Y0083656D01*
X0112342Y0082905D01*
X0112342Y0083656D02*
X0111591Y0084406D01*
X0110840Y0084406D01*
X0110090Y0083656D01*
X0110090Y0082155D01*
X0110840Y0081404D01*
X0110840Y0079803D02*
X0110090Y0079052D01*
X0110090Y0077551D01*
X0110840Y0076800D01*
X0113843Y0076800D01*
X0114593Y0086008D02*
X0111591Y0089010D01*
X0110840Y0089010D01*
X0110090Y0088260D01*
X0110090Y0086759D01*
X0110840Y0086008D01*
X0114593Y0086008D02*
X0114593Y0089010D01*
X0114593Y0090612D02*
X0110090Y0090612D01*
X0111591Y0092113D01*
X0110090Y0093614D01*
X0114593Y0093614D01*
X0114593Y0095216D02*
X0110090Y0098218D01*
X0110840Y0099820D02*
X0110090Y0100570D01*
X0110090Y0102072D01*
X0110840Y0102822D01*
X0111591Y0102822D01*
X0114593Y0099820D01*
X0114593Y0102822D01*
X0113843Y0104424D02*
X0114593Y0105174D01*
X0114593Y0106675D01*
X0113843Y0107426D01*
X0112342Y0107426D01*
X0111591Y0106675D01*
X0111591Y0105925D01*
X0112342Y0104424D01*
X0110090Y0104424D01*
X0110090Y0107426D01*
X0110840Y0109027D02*
X0110090Y0109778D01*
X0110090Y0111279D01*
X0110840Y0112030D01*
X0113843Y0109027D01*
X0114593Y0109778D01*
X0114593Y0111279D01*
X0113843Y0112030D01*
X0110840Y0112030D01*
X0111591Y0113631D02*
X0110090Y0115133D01*
X0114593Y0115133D01*
X0114593Y0116634D02*
X0114593Y0113631D01*
X0114593Y0118235D02*
X0111591Y0121238D01*
X0110840Y0121238D01*
X0110090Y0120487D01*
X0110090Y0118986D01*
X0110840Y0118235D01*
X0114593Y0118235D02*
X0114593Y0121238D01*
X0113843Y0122839D02*
X0114593Y0123590D01*
X0114593Y0125091D01*
X0113843Y0125842D01*
X0113092Y0125842D01*
X0112342Y0125091D01*
X0112342Y0123590D01*
X0111591Y0122839D01*
X0110840Y0122839D01*
X0110090Y0123590D01*
X0110090Y0125091D01*
X0110840Y0125842D01*
X0111591Y0125842D01*
X0112342Y0125091D01*
X0112342Y0123590D02*
X0113092Y0122839D01*
X0113843Y0122839D01*
X0114593Y0127443D02*
X0110090Y0127443D01*
X0110090Y0129695D01*
X0110840Y0130446D01*
X0111591Y0130446D01*
X0112342Y0129695D01*
X0112342Y0127443D01*
X0114593Y0127443D02*
X0114593Y0129695D01*
X0113843Y0130446D01*
X0113092Y0130446D01*
X0112342Y0129695D01*
X0113843Y0109027D02*
X0110840Y0109027D01*
X0114593Y0098218D02*
X0110090Y0095216D01*
X0144767Y0096114D02*
X0146269Y0097615D01*
X0146269Y0093111D01*
X0147770Y0093111D02*
X0144767Y0093111D01*
X0149371Y0093862D02*
X0152374Y0096864D01*
X0152374Y0093862D01*
X0151623Y0093111D01*
X0150122Y0093111D01*
X0149371Y0093862D01*
X0149371Y0096864D01*
X0150122Y0097615D01*
X0151623Y0097615D01*
X0152374Y0096864D01*
X0153975Y0096114D02*
X0153975Y0093862D01*
X0154726Y0093111D01*
X0156978Y0093111D01*
X0156978Y0096114D01*
X0158579Y0095363D02*
X0160081Y0095363D01*
X0158579Y0097615D02*
X0161582Y0097615D01*
X0158579Y0097615D02*
X0158579Y0093111D01*
X0146839Y0135333D02*
X0143836Y0135333D01*
X0143086Y0136084D01*
X0143086Y0137585D01*
X0143836Y0138336D01*
X0146839Y0135333D01*
X0147590Y0136084D01*
X0147590Y0137585D01*
X0146839Y0138336D01*
X0143836Y0138336D01*
X0146839Y0139937D02*
X0146839Y0140688D01*
X0147590Y0140688D01*
X0147590Y0139937D01*
X0146839Y0139937D01*
X0147590Y0142239D02*
X0147590Y0145242D01*
X0147590Y0143741D02*
X0143086Y0143741D01*
X0144587Y0142239D01*
X0144587Y0146843D02*
X0146839Y0146843D01*
X0147590Y0147594D01*
X0147590Y0149846D01*
X0144587Y0149846D01*
X0145338Y0151447D02*
X0145338Y0152948D01*
X0147590Y0151447D02*
X0143086Y0151447D01*
X0143086Y0154450D01*
X0148596Y0166051D02*
X0147845Y0166802D01*
X0150848Y0169804D01*
X0150848Y0166802D01*
X0150097Y0166051D01*
X0148596Y0166051D01*
X0147845Y0166802D02*
X0147845Y0169804D01*
X0148596Y0170555D01*
X0150097Y0170555D01*
X0150848Y0169804D01*
X0152449Y0166802D02*
X0153200Y0166802D01*
X0153200Y0166051D01*
X0152449Y0166051D01*
X0152449Y0166802D01*
X0154751Y0166051D02*
X0157754Y0166051D01*
X0156253Y0166051D02*
X0156253Y0170555D01*
X0154751Y0169054D01*
X0159355Y0169054D02*
X0159355Y0166802D01*
X0160106Y0166051D01*
X0162358Y0166051D01*
X0162358Y0169054D01*
X0163959Y0168303D02*
X0165460Y0168303D01*
X0163959Y0166051D02*
X0163959Y0170555D01*
X0166962Y0170555D01*
X0166523Y0174488D02*
X0169525Y0174488D01*
X0168024Y0174488D02*
X0168024Y0178992D01*
X0166523Y0177491D01*
X0171127Y0178241D02*
X0171127Y0175239D01*
X0174129Y0178241D01*
X0174129Y0175239D01*
X0173378Y0174488D01*
X0171877Y0174488D01*
X0171127Y0175239D01*
X0171127Y0178241D02*
X0171877Y0178992D01*
X0173378Y0178992D01*
X0174129Y0178241D01*
X0175730Y0177491D02*
X0175730Y0175239D01*
X0176481Y0174488D01*
X0178733Y0174488D01*
X0178733Y0177491D01*
X0180334Y0176740D02*
X0181836Y0176740D01*
X0180334Y0178992D02*
X0183337Y0178992D01*
X0180334Y0178992D02*
X0180334Y0174488D01*
X0196467Y0165933D02*
X0196467Y0163681D01*
X0200971Y0163681D01*
X0200971Y0165933D01*
X0200220Y0166684D01*
X0197217Y0166684D01*
X0196467Y0165933D01*
X0196467Y0162080D02*
X0196467Y0159077D01*
X0200971Y0159077D01*
X0200971Y0162080D01*
X0198719Y0160578D02*
X0198719Y0159077D01*
X0198719Y0157476D02*
X0197217Y0157476D01*
X0196467Y0156725D01*
X0196467Y0154473D01*
X0200971Y0154473D01*
X0199469Y0154473D02*
X0199469Y0156725D01*
X0198719Y0157476D01*
X0199469Y0155975D02*
X0200971Y0157476D01*
X0182203Y0152123D02*
X0182203Y0149121D01*
X0181452Y0148370D01*
X0179951Y0148370D01*
X0179201Y0149121D01*
X0182203Y0152123D01*
X0181452Y0152874D01*
X0179951Y0152874D01*
X0179201Y0152123D01*
X0179201Y0149121D01*
X0177599Y0149121D02*
X0176849Y0148370D01*
X0175347Y0148370D01*
X0174597Y0149121D01*
X0172995Y0149121D02*
X0172995Y0149871D01*
X0172245Y0150622D01*
X0171494Y0150622D01*
X0172245Y0150622D02*
X0172995Y0151373D01*
X0172995Y0152123D01*
X0172245Y0152874D01*
X0170743Y0152874D01*
X0169993Y0152123D01*
X0169993Y0149121D02*
X0170743Y0148370D01*
X0172245Y0148370D01*
X0172995Y0149121D01*
X0174597Y0152123D02*
X0175347Y0152874D01*
X0176849Y0152874D01*
X0177599Y0152123D01*
X0177599Y0151373D01*
X0176849Y0150622D01*
X0177599Y0149871D01*
X0177599Y0149121D01*
X0176849Y0150622D02*
X0176098Y0150622D01*
X0154195Y0183295D02*
X0154195Y0187799D01*
X0157198Y0187799D01*
X0155697Y0185547D02*
X0154195Y0185547D01*
X0152594Y0186298D02*
X0152594Y0183295D01*
X0150342Y0183295D01*
X0149591Y0184046D01*
X0149591Y0186298D01*
X0147990Y0183295D02*
X0144988Y0183295D01*
X0146489Y0183295D02*
X0146489Y0187799D01*
X0144988Y0186298D01*
X0143436Y0184046D02*
X0143436Y0183295D01*
X0142686Y0183295D01*
X0142686Y0184046D01*
X0143436Y0184046D01*
X0141084Y0184046D02*
X0141084Y0187048D01*
X0138082Y0184046D01*
X0138832Y0183295D01*
X0140334Y0183295D01*
X0141084Y0184046D01*
X0141084Y0187048D02*
X0140334Y0187799D01*
X0138832Y0187799D01*
X0138082Y0187048D01*
X0138082Y0184046D01*
X0133775Y0191736D02*
X0130772Y0191736D01*
X0133775Y0194739D01*
X0133775Y0195489D01*
X0133024Y0196240D01*
X0131523Y0196240D01*
X0130772Y0195489D01*
X0129171Y0195489D02*
X0129171Y0192487D01*
X0128420Y0191736D01*
X0126919Y0191736D01*
X0126168Y0192487D01*
X0129171Y0195489D01*
X0128420Y0196240D01*
X0126919Y0196240D01*
X0126168Y0195489D01*
X0126168Y0192487D01*
X0124567Y0195489D02*
X0121564Y0192487D01*
X0121564Y0191736D01*
X0119963Y0191736D02*
X0116960Y0191736D01*
X0118462Y0191736D02*
X0118462Y0196240D01*
X0116960Y0194739D01*
X0115359Y0195489D02*
X0114608Y0196240D01*
X0112356Y0196240D01*
X0112356Y0191736D01*
X0112356Y0193237D02*
X0114608Y0193237D01*
X0115359Y0193988D01*
X0115359Y0195489D01*
X0110755Y0195489D02*
X0110004Y0196240D01*
X0108503Y0196240D01*
X0107752Y0195489D01*
X0107752Y0192487D01*
X0108503Y0191736D01*
X0110004Y0191736D01*
X0110755Y0192487D01*
X0106151Y0191736D02*
X0106151Y0196240D01*
X0104650Y0194739D01*
X0103149Y0196240D01*
X0103149Y0191736D01*
X0121564Y0196240D02*
X0124567Y0196240D01*
X0124567Y0195489D01*
X0049588Y0197431D02*
X0049588Y0161998D01*
X0018879Y0161998D01*
X0018879Y0197431D01*
X0049588Y0197431D01*
X0046044Y0195463D02*
X0042107Y0195463D01*
X0040139Y0179715D01*
X0037186Y0175778D02*
X0031280Y0175778D01*
X0029312Y0195463D01*
X0026359Y0195463D02*
X0028328Y0177746D01*
X0020454Y0177746D02*
X0022422Y0195463D01*
X0026359Y0195463D01*
X0039154Y0195463D02*
X0037186Y0175778D01*
X0048013Y0179715D02*
X0046044Y0195463D01*
X0162555Y0027257D02*
X0164056Y0027257D01*
X0164807Y0026506D01*
X0164807Y0025755D01*
X0164056Y0025005D01*
X0164807Y0024254D01*
X0164807Y0023503D01*
X0164056Y0022753D01*
X0162555Y0022753D01*
X0161804Y0023503D01*
X0163306Y0025005D02*
X0164056Y0025005D01*
X0161804Y0026506D02*
X0162555Y0027257D01*
X0166408Y0026506D02*
X0167159Y0027257D01*
X0168660Y0027257D01*
X0169411Y0026506D01*
X0169411Y0025755D01*
X0168660Y0025005D01*
X0169411Y0024254D01*
X0169411Y0023503D01*
X0168660Y0022753D01*
X0167159Y0022753D01*
X0166408Y0023503D01*
X0167910Y0025005D02*
X0168660Y0025005D01*
X0171012Y0023503D02*
X0171012Y0026506D01*
X0171763Y0027257D01*
X0173264Y0027257D01*
X0174015Y0026506D01*
X0171012Y0023503D01*
X0171763Y0022753D01*
X0173264Y0022753D01*
X0174015Y0023503D01*
X0174015Y0026506D01*
X0165375Y0018320D02*
X0165375Y0013816D01*
X0162372Y0018320D01*
X0162372Y0013816D01*
X0160771Y0013816D02*
X0157768Y0013816D01*
X0157768Y0018320D01*
X0160771Y0018320D01*
X0159270Y0016068D02*
X0157768Y0016068D01*
X0156167Y0013816D02*
X0153164Y0013816D01*
X0153164Y0018320D01*
X0156167Y0018320D01*
X0154666Y0016068D02*
X0153164Y0016068D01*
X0151563Y0016068D02*
X0151563Y0017569D01*
X0150812Y0018320D01*
X0148560Y0018320D01*
X0148560Y0013816D01*
X0148560Y0015317D02*
X0150812Y0015317D01*
X0151563Y0016068D01*
X0150062Y0015317D02*
X0151563Y0013816D01*
X0146959Y0014566D02*
X0146959Y0016068D01*
X0145458Y0016068D01*
X0146959Y0017569D02*
X0146208Y0018320D01*
X0144707Y0018320D01*
X0143956Y0017569D01*
X0143956Y0014566D01*
X0144707Y0013816D01*
X0146208Y0013816D01*
X0146959Y0014566D01*
M02*
